<svg xmlns="http://www.w3.org/2000/svg" viewBox="0 0 92 83.4"><title>CA1</title><g id="Calque_2" data-name="Calque 2"><g id="icons"><path d="M90.41,38.75H70.13V34.83a1.59,1.59,0,0,0-.81-1.38L47.59,21.24V15h4.29v2.36A1.59,1.59,0,0,0,53.47,19h13A1.59,1.59,0,0,0,68,17.38a1.61,1.61,0,0,0-.1-.53l-1.3-3.7,1.32-3.62a1.58,1.58,0,0,0-1.49-2.12h-5.9V5.11A1.59,1.59,0,0,0,59,3.52H47.59V1.59a1.59,1.59,0,0,0-3.18,0V21.24L22.68,33.44a1.59,1.59,0,0,0-.81,1.38v3.92H1.59A1.59,1.59,0,0,0,0,40.32v41.5A1.59,1.59,0,0,0,1.59,83.4H90.41A1.59,1.59,0,0,0,92,81.82V40.34A1.59,1.59,0,0,0,90.41,38.75ZM60.55,13.44l-.07-.07V10.64H64.1l-.65,2a1.6,1.6,0,0,0,0,1.1l.74,2H55.06V15H59A1.59,1.59,0,0,0,60.55,13.44Zm-13-6.75h9.78v5.16H47.59ZM21.87,80.23H3.17V41.92h18.7Zm22.54,0H36.09V62.12h8.32Zm11.5,0H47.59V62.12h8.32Zm11.11,0H59.09V60.53a1.59,1.59,0,0,0-1.59-1.59h-23a1.59,1.59,0,0,0-1.59,1.59v19.7H25V35.82L46,24,67,35.75,67,40.32Zm21.81,0H70.13V41.92h18.7Z"/><path d="M46,28.84a6.65,6.65,0,1,0,6.65,6.63A6.67,6.67,0,0,0,46,28.84ZM46,39a3.48,3.48,0,1,1,3.47-3.46h0A3.47,3.47,0,0,1,46,39Z"/><rect x="7" y="45.41" width="3.17" height="6.34"/><rect x="14.82" y="45.41" width="3.17" height="6.34"/><rect x="29.8" y="45.41" width="6.34" height="3.17"/><rect x="42.83" y="45.41" width="6.34" height="3.17"/><rect x="55.85" y="45.41" width="6.34" height="3.17"/><rect x="29.8" y="52.8" width="6.34" height="3.17"/><rect x="42.83" y="52.8" width="6.34" height="3.17"/><rect x="55.85" y="52.8" width="6.34" height="3.17"/><rect x="7" y="57.9" width="3.17" height="6.34"/><rect x="14.82" y="57.9" width="3.17" height="6.34"/><rect x="74.01" y="45.41" width="3.17" height="6.34"/><rect x="81.83" y="45.41" width="3.17" height="6.34"/><rect x="74.01" y="57.9" width="3.17" height="6.34"/><rect x="81.83" y="57.9" width="3.17" height="6.34"/></g></g></svg>