<svg xmlns="http://www.w3.org/2000/svg" viewBox="0 0 92 92"><title>CSE1</title><g id="Calque_2" data-name="Calque 2"><g id="icons"><path d="M52.3,43.63a1.54,1.54,0,0,0,1.37.84,1.56,1.56,0,0,0,.69-.17c.09,0,9.12-4.63,13.57-6A1.53,1.53,0,1,0,67,35.34c-4.69,1.48-13.65,6-14,6.23A1.54,1.54,0,0,0,52.3,43.63Z"/><path d="M53.67,26.07a1.56,1.56,0,0,0,.69-.17c.09,0,9.12-4.63,13.57-6A1.53,1.53,0,1,0,67,16.94c-4.69,1.48-13.65,6-14,6.23a1.53,1.53,0,0,0,.7,2.9Z"/><path d="M90.47,23a1.54,1.54,0,0,0-1.54,1.53v59.8a4.6,4.6,0,0,1-4.6,4.6H47.53V85.4a45.31,45.31,0,0,1,13.8-2.6,79.08,79.08,0,0,1,22.52,3,1.58,1.58,0,0,0,1.38-.21,1.54,1.54,0,0,0,.64-1.25V16.87a1.54,1.54,0,0,0-1.2-1.5s-1.21-.27-3.26-.64a1.53,1.53,0,1,0-.56,3l2,.37V82.3a86.08,86.08,0,0,0-21.47-2.57,48.24,48.24,0,0,0-15.27,2.94A35.88,35.88,0,0,0,32.2,79.73a103.6,103.6,0,0,0-23,2.63V18.05a101.12,101.12,0,0,1,23-2.72,33.23,33.23,0,0,1,12.27,2.53V78.2a1.53,1.53,0,0,0,2.32,1.31c.15-.09,15.34-9.16,28.83-13.65a1.55,1.55,0,0,0,1-1.46V1.53A1.54,1.54,0,0,0,74.59.1a162.19,162.19,0,0,0-24.8,12.4,1.53,1.53,0,0,0,1.62,2.6A164.12,164.12,0,0,1,73.6,3.78V63.3c-10.47,3.64-21.4,9.58-26.07,12.24V16.87a1.53,1.53,0,0,0-.85-1.37A35.24,35.24,0,0,0,32.2,12.27a100.21,100.21,0,0,0-25,3.12,1.54,1.54,0,0,0-1.11,1.48V84.33a1.54,1.54,0,0,0,1.54,1.54,1.52,1.52,0,0,0,.42-.06,98.3,98.3,0,0,1,24.11-3,33.23,33.23,0,0,1,12.27,2.53v3.6H7.67a4.6,4.6,0,0,1-4.6-4.6V24.53a1.54,1.54,0,0,0-3.07,0v59.8A7.68,7.68,0,0,0,7.67,92H84.33A7.68,7.68,0,0,0,92,84.33V24.53A1.54,1.54,0,0,0,90.47,23Z"/><path d="M52.3,34.43a1.54,1.54,0,0,0,1.37.84,1.56,1.56,0,0,0,.69-.17c.09-.05,9.12-4.63,13.57-6A1.53,1.53,0,1,0,67,26.14c-4.69,1.48-13.65,6-14,6.23A1.54,1.54,0,0,0,52.3,34.43Z"/><path d="M52.3,52.83a1.54,1.54,0,0,0,1.37.84,1.56,1.56,0,0,0,.69-.17c.09,0,9.12-4.63,13.57-6A1.53,1.53,0,1,0,67,44.54c-4.69,1.48-13.65,6-14,6.23A1.54,1.54,0,0,0,52.3,52.83Z"/><path d="M37.15,28.46c-9.47-2.23-20.23.6-20.68.73a1.53,1.53,0,0,0,.4,3,1.74,1.74,0,0,0,.39-.05c.11,0,10.47-2.76,19.19-.71a1.53,1.53,0,0,0,.7-3Z"/><path d="M37.15,37.66c-9.47-2.22-20.23.6-20.68.73a1.53,1.53,0,0,0,.4,3,1.74,1.74,0,0,0,.39,0c.11,0,10.47-2.76,19.19-.71a1.53,1.53,0,0,0,.7-3Z"/><path d="M52.3,62a1.54,1.54,0,0,0,1.37.84,1.56,1.56,0,0,0,.69-.17c.09-.05,9.12-4.63,13.57-6A1.53,1.53,0,1,0,67,53.74c-4.69,1.48-13.65,6-14,6.23A1.54,1.54,0,0,0,52.3,62Z"/><path d="M37.15,46.86c-9.47-2.22-20.23.6-20.68.73a1.53,1.53,0,0,0,.4,3,1.74,1.74,0,0,0,.39-.05c.11,0,10.47-2.76,19.19-.71a1.53,1.53,0,1,0,.7-3Z"/><path d="M37.15,65.26c-9.47-2.23-20.23.6-20.68.73a1.53,1.53,0,0,0,.4,3,1.74,1.74,0,0,0,.39,0c.11,0,10.47-2.76,19.19-.71a1.53,1.53,0,0,0,.7-3Z"/><path d="M37.15,56.06c-9.47-2.23-20.23.6-20.68.73a1.53,1.53,0,0,0,.4,3,1.74,1.74,0,0,0,.39,0c.11,0,10.47-2.76,19.19-.71a1.53,1.53,0,0,0,.7-3Z"/></g></g></svg>