<svg xmlns="http://www.w3.org/2000/svg" viewBox="0 0 92 92"><title>CSJ1</title><g id="Calque_2" data-name="Calque 2"><g id="icons"><path d="M82.4,58.77l-6-1.43V55a11.85,11.85,0,0,0,5.55-10v-6.7a11.86,11.86,0,0,0-20.74-7.85A15.82,15.82,0,0,0,46,19h0A15.85,15.85,0,0,0,30.81,30.41a11.85,11.85,0,0,0-20.76,7.82v6.7A11.85,11.85,0,0,0,15.6,55v2.38l-6,1.43A12.47,12.47,0,0,0,0,70.94V83a1.79,1.79,0,0,0,1.8,1.79H16.17V90.2A1.79,1.79,0,0,0,18,92H37.67a1.8,1.8,0,1,0,0-3.59h-8V80.5a1.8,1.8,0,1,0-3.59,0v7.91h-6.3V80.3A13.09,13.09,0,0,1,29.82,67.54l8.84-2.12,5.69,12.94A1.79,1.79,0,0,0,46,79.43h0a1.8,1.8,0,0,0,1.65-1.07l5.68-12.92,8.81,2.1A13.09,13.09,0,0,1,72.2,80.31v2a1.85,1.85,0,0,0,0,1.41v4.69H65.94V80.5a1.8,1.8,0,1,0-3.59,0v7.91h-8.8a1.8,1.8,0,1,0,0,3.59H74a1.8,1.8,0,0,0,1.8-1.8V84.81H90.2A1.79,1.79,0,0,0,92,83V70.94A12.47,12.47,0,0,0,82.4,58.77ZM70.09,30a8.28,8.28,0,0,1,8.26,8.26v.63H73.21a22.25,22.25,0,0,1-11.06-3A8.29,8.29,0,0,1,70.09,30ZM61.82,44.64c0-.19,0-4.83,0-4.83a25.89,25.89,0,0,0,11.38,2.64h5.14v2.48a8.27,8.27,0,1,1-16.53,0v-.29Zm-28-9.88a12.22,12.22,0,1,1,24.44,0V35l-6.67-3.92a1.81,1.81,0,0,0-2.29.4,13.57,13.57,0,0,1-10.42,4.87H33.8ZM13.65,38.68v-.45a8.27,8.27,0,0,1,16.2-2.32,22.25,22.25,0,0,1-11.06,3H13.65Zm0,6.25V42.45h5.14A25.8,25.8,0,0,0,30.18,39.8v5.13a8.27,8.27,0,1,1-16.53,0ZM16.17,80.3v.92H10.78v-8a1.8,1.8,0,1,0-3.59,0v8H3.59V70.94a8.88,8.88,0,0,1,6.85-8.67l5.69-1.36,3.72,8.9A16.71,16.71,0,0,0,16.17,80.3Zm5.74-14.88-2.73-6.53a.62.62,0,0,0,0-.13V56.47a11.7,11.7,0,0,0,2.72.32,11.49,11.49,0,0,0,2.71-.32v2.27c0,.06,0,.12,0,.17ZM29,64a17,17,0,0,0-3,1L27.7,60.9l5.7,1.36a9.13,9.13,0,0,1,1.28.42Zm8.92-3.74a12.42,12.42,0,0,0-3.68-1.53l-6-1.44V55a12,12,0,0,0,3.71-3.7,16,16,0,0,0,6,6.38ZM50.48,63,46,73.17,41.5,62.94v-3.7A15.69,15.69,0,0,0,46,59.9a16,16,0,0,0,4.46-.64V63ZM46,56.3A12.23,12.23,0,0,1,33.8,44.09V39.93h5.06a17.14,17.14,0,0,0,12.14-5l7.23,4.24v5.36A12.24,12.24,0,0,1,46,56.3Zm8,1.39h0a16,16,0,0,0,6-6.39A12,12,0,0,0,63.78,55v2.36l-6,1.44a12.29,12.29,0,0,0-3.7,1.54V57.69ZM63,64.05l-5.69-1.36a8.84,8.84,0,0,1,1.32-.43l5.69-1.36L66,65.11A16.61,16.61,0,0,0,63,64.05Zm4.39-5.11a1.23,1.23,0,0,0,0-.2V56.47a11.49,11.49,0,0,0,2.71.32,11.7,11.7,0,0,0,2.72-.32v2.38l-2.74,6.57Zm21,22.28h-3.6v-8a1.8,1.8,0,1,0-3.59,0v8H75.8v-.91a16.68,16.68,0,0,0-3.68-10.48l3.73-8.93,5.71,1.37a8.88,8.88,0,0,1,6.85,8.67Z"/><path d="M41.24,42.08A1.77,1.77,0,0,0,40,41.55a1.85,1.85,0,0,0-1.27.53,1.81,1.81,0,0,0,0,2.54,1.85,1.85,0,0,0,1.27.53,1.81,1.81,0,0,0,1.27-.53,1.79,1.79,0,0,0,0-2.54Z"/><path d="M53.26,42.08A1.79,1.79,0,0,0,52,41.55a1.83,1.83,0,0,0-1.27.53,1.79,1.79,0,0,0,0,2.54,1.79,1.79,0,0,0,2.54,0,1.79,1.79,0,0,0,0-2.54Z"/><path d="M49.46,48.13a1.8,1.8,0,0,0-2.54,0,1.37,1.37,0,0,1-1.93,0,1.8,1.8,0,0,0-2.54,2.54,5,5,0,0,0,7,0A1.8,1.8,0,0,0,49.46,48.13Z"/><path d="M74.3,9.7H73.06a1.8,1.8,0,0,0,0,3.6H74.3a1.8,1.8,0,0,0,0-3.6Z"/><path d="M83,9.7H81.78a1.8,1.8,0,0,0,0,3.6H83a1.8,1.8,0,0,0,0-3.6Z"/><path d="M78,13.45a1.8,1.8,0,0,0-1.8,1.79v1.24a1.8,1.8,0,0,0,3.6,0V15.24A1.8,1.8,0,0,0,78,13.45Z"/><path d="M78,4.73a1.8,1.8,0,0,0-1.8,1.79V7.76a1.8,1.8,0,0,0,3.6,0V6.52A1.8,1.8,0,0,0,78,4.73Z"/><path d="M10.12,9.7H8.88a1.8,1.8,0,0,0,0,3.6h1.24a1.8,1.8,0,0,0,0-3.6Z"/><path d="M18.84,9.7H17.6a1.8,1.8,0,0,0,0,3.6h1.24a1.8,1.8,0,0,0,0-3.6Z"/><path d="M13.86,13.45a1.8,1.8,0,0,0-1.8,1.79v1.24a1.8,1.8,0,0,0,3.6,0V15.24A1.8,1.8,0,0,0,13.86,13.45Z"/><path d="M13.86,4.73a1.8,1.8,0,0,0-1.8,1.79V7.76a1.8,1.8,0,0,0,3.6,0V6.52A1.8,1.8,0,0,0,13.86,4.73Z"/><path d="M46,6.84a1.81,1.81,0,0,0-1.8,1.8v4.73a1.8,1.8,0,0,0,3.6,0V8.64A1.81,1.81,0,0,0,46,6.84Z"/><path d="M47.27.53a1.79,1.79,0,0,0-2.54,0A1.81,1.81,0,0,0,44.2,1.8a1.85,1.85,0,0,0,.53,1.27,1.81,1.81,0,0,0,2.54,0A1.85,1.85,0,0,0,47.8,1.8,1.81,1.81,0,0,0,47.27.53Z"/><path d="M39.7,7.21,37.07,4.58a1.8,1.8,0,1,0-2.54,2.54l2.63,2.63A1.8,1.8,0,1,0,39.7,7.21Z"/><path d="M57.47,4.48a1.8,1.8,0,0,0-2.54,0L52.21,7.2a1.8,1.8,0,1,0,2.54,2.54L57.47,7A1.8,1.8,0,0,0,57.47,4.48Z"/></g></g></svg>