<svg xmlns="http://www.w3.org/2000/svg" viewBox="0 0 92 77.16"><title>MJ1</title><g id="Calque_2" data-name="Calque 2"><g id="icons"><path d="M90.52,8.9A1.4,1.4,0,0,0,92,7.42V1.48A1.4,1.4,0,0,0,90.52,0h-89A1.4,1.4,0,0,0,0,1.48V7.42A1.4,1.4,0,0,0,1.48,8.9H8.9v3H7.42a1.4,1.4,0,0,0-1.48,1.48v43H1.48A1.4,1.4,0,0,0,0,57.87V75.68a1.4,1.4,0,0,0,1.48,1.48h89A1.4,1.4,0,0,0,92,75.68V57.87a1.4,1.4,0,0,0-1.48-1.48H86.06v-43a1.4,1.4,0,0,0-1.48-1.48H83.1v-3ZM8.9,14.84H83.1v3H8.9Zm3-3v-3H80.13v3Zm-3,8.9H83.1V56.39H56.39V28.19a1.4,1.4,0,0,0-1.49-1.48H37.1a1.4,1.4,0,0,0-1.49,1.48v28.2H8.9ZM38.58,32.65v-3H53.42v3Zm14.84,3V56.39H38.58V35.61ZM89,59.35V74.19H3V59.35ZM3,5.94V3H89v3Z"/><path d="M13.35,62.32H7.42a1.4,1.4,0,0,0-1.48,1.49v5.93a1.4,1.4,0,0,0,1.48,1.49h5.93a1.41,1.41,0,0,0,1.49-1.49V63.81A1.41,1.41,0,0,0,13.35,62.32Zm-1.48,5.94h-3v-3h3Z"/><path d="M25.23,62.32H19.29a1.4,1.4,0,0,0-1.48,1.49v5.93a1.4,1.4,0,0,0,1.48,1.49h5.94a1.4,1.4,0,0,0,1.48-1.49V63.81A1.4,1.4,0,0,0,25.23,62.32Zm-1.49,5.94h-3v-3h3Z"/><path d="M37.1,62.32H31.16a1.4,1.4,0,0,0-1.48,1.49v5.93a1.4,1.4,0,0,0,1.48,1.49H37.1a1.4,1.4,0,0,0,1.48-1.49V63.81A1.4,1.4,0,0,0,37.1,62.32Zm-1.49,5.94h-3v-3h3Z"/><path d="M49,62.32H43a1.4,1.4,0,0,0-1.48,1.49v5.93A1.4,1.4,0,0,0,43,71.23H49a1.4,1.4,0,0,0,1.48-1.49V63.81A1.4,1.4,0,0,0,49,62.32Zm-1.49,5.94h-3v-3h3Z"/><path d="M60.84,62.32H54.9a1.4,1.4,0,0,0-1.48,1.49v5.93a1.4,1.4,0,0,0,1.48,1.49h5.94a1.4,1.4,0,0,0,1.48-1.49V63.81A1.4,1.4,0,0,0,60.84,62.32Zm-1.49,5.94h-3v-3h3Z"/><path d="M72.71,62.32H66.77a1.4,1.4,0,0,0-1.48,1.49v5.93a1.4,1.4,0,0,0,1.48,1.49h5.94a1.4,1.4,0,0,0,1.48-1.49V63.81A1.4,1.4,0,0,0,72.71,62.32Zm-1.48,5.94h-3v-3h3Z"/><path d="M84.58,62.32H78.65a1.41,1.41,0,0,0-1.49,1.49v5.93a1.41,1.41,0,0,0,1.49,1.49h5.93a1.4,1.4,0,0,0,1.48-1.49V63.81A1.4,1.4,0,0,0,84.58,62.32ZM83.1,68.26h-3v-3h3Z"/><path d="M25.23,32.65H13.35a1.4,1.4,0,0,0-1.48,1.48V49a1.4,1.4,0,0,0,1.48,1.48H25.23A1.4,1.4,0,0,0,26.71,49V34.13A1.4,1.4,0,0,0,25.23,32.65ZM23.74,47.48h-8.9V41.55h8.9Zm0-8.9h-8.9v-3h8.9Z"/><path d="M78.65,32.65H66.77a1.4,1.4,0,0,0-1.48,1.48V49a1.4,1.4,0,0,0,1.48,1.48H78.65A1.4,1.4,0,0,0,80.13,49V34.13A1.4,1.4,0,0,0,78.65,32.65ZM77.16,47.48h-8.9V41.55h8.9Zm0-8.9h-8.9v-3h8.9Z"/></g></g></svg>