<svg xmlns="http://www.w3.org/2000/svg" viewBox="0 0 92 85.87"><title>CFP1</title><g id="Calque_2" data-name="Calque 2"><g id="icons"><path d="M64.77,76.71a1.54,1.54,0,0,0-1.86,1.12L61.38,84a1.53,1.53,0,0,0,1.12,1.86,1.57,1.57,0,0,0,.37.05,1.53,1.53,0,0,0,1.48-1.16l1.54-6.14A1.54,1.54,0,0,0,64.77,76.71Z"/><path d="M46,46a1.52,1.52,0,0,0,.59-.12l16.86-7a1.53,1.53,0,0,0-1.17-2.83L46,42.81,3.07,25v-.51a1.54,1.54,0,0,0-3.07,0v1.54a1.51,1.51,0,0,0,1,1.41l44.46,18.4A1.52,1.52,0,0,0,46,46Z"/><path d="M64.24,61.71a1.53,1.53,0,0,0-2-.7,35.76,35.76,0,0,1-14.66,3.35V50.6a1.53,1.53,0,1,0-3.06,0V64.34c-19-.61-25.19-12.14-26.07-14.06V39.87a1.54,1.54,0,1,0-3.07,0V50.6a1.6,1.6,0,0,0,.11.57c.27.66,6.8,16.3,30.56,16.3a39.4,39.4,0,0,0,17.55-3.71A1.52,1.52,0,0,0,64.24,61.71Z"/><path d="M69,78.2a1.53,1.53,0,0,0-1.53,1.53v4.6a1.53,1.53,0,1,0,3.06,0v-4.6A1.53,1.53,0,0,0,69,78.2Z"/><path d="M90.47,23a1.54,1.54,0,0,0-1.54,1.53V25l-18.4,7.57V29.84l20.52-8.49a1.53,1.53,0,0,0,1-1.42,1.51,1.51,0,0,0-1-1.41L46.59.12a1.51,1.51,0,0,0-1.18,0L1,18.52A1.51,1.51,0,0,0,0,19.93a1.53,1.53,0,0,0,1,1.42l44.46,18.4a1.51,1.51,0,0,0,1.18,0L62.66,33.1a1.54,1.54,0,1,0-1.17-2.84L46,36.67,5.54,19.93,46,3.19,86.46,19.93,68.85,27.22,52,20.92a3.64,3.64,0,0,0,.14-1c0-2.58-2.69-4.6-6.13-4.6s-6.13,2-6.13,4.6,2.69,4.6,6.13,4.6a7.48,7.48,0,0,0,4-1.09L67.47,30v4.92h0V67.75a4.6,4.6,0,1,0,3.06,0v-8.7a18.59,18.59,0,0,0,6-7.95,1.43,1.43,0,0,0,.09-.5V39.87a1.54,1.54,0,1,0-3.07,0V50.32A15.85,15.85,0,0,1,70.53,55v-19l20.52-8.45a1.51,1.51,0,0,0,1-1.41V24.53A1.54,1.54,0,0,0,90.47,23ZM46,21.47c-1.87,0-3.07-.91-3.07-1.54S44.13,18.4,46,18.4s3.07.91,3.07,1.53S47.87,21.47,46,21.47ZM69,73.6a1.54,1.54,0,1,1,1.53-1.53A1.53,1.53,0,0,1,69,73.6Z"/><path d="M75.09,77.83a1.54,1.54,0,1,0-3,.74l1.54,6.14a1.53,1.53,0,0,0,1.48,1.16,1.57,1.57,0,0,0,.37-.05A1.53,1.53,0,0,0,76.62,84Z"/></g></g></svg>