<svg xmlns="http://www.w3.org/2000/svg" viewBox="0 0 92 92"><title>FF1</title><g id="Calque_2" data-name="Calque 2"><g id="icons"><path d="M27.76,26.19H19.14A1.8,1.8,0,0,0,17.34,28V38.05a1.8,1.8,0,0,0,1.8,1.79h8.62a1.79,1.79,0,0,0,1.8-1.79V28A1.79,1.79,0,0,0,27.76,26.19ZM26,36.25h-5V29.78h5Z"/><path d="M27.76,46.31H19.14a1.81,1.81,0,0,0-1.8,1.8V58.17a1.81,1.81,0,0,0,1.8,1.8h8.62a1.8,1.8,0,0,0,1.8-1.8V48.11A1.8,1.8,0,0,0,27.76,46.31ZM26,56.37h-5V49.91h5Z"/><path d="M27.76,66.44H19.14a1.8,1.8,0,0,0-1.8,1.79V78.3a1.8,1.8,0,0,0,1.8,1.79h8.62a1.79,1.79,0,0,0,1.8-1.79V68.23A1.79,1.79,0,0,0,27.76,66.44ZM26,76.5h-5V70h5Z"/><path d="M74.66,66.44H66a1.79,1.79,0,0,0-1.79,1.79V78.3A1.79,1.79,0,0,0,66,80.09h8.63a1.8,1.8,0,0,0,1.8-1.79V68.23A1.8,1.8,0,0,0,74.66,66.44ZM72.86,76.5h-5V70h5Z"/><path d="M43.4,26.19H34.77A1.8,1.8,0,0,0,33,28V38.05a1.8,1.8,0,0,0,1.8,1.79H43.4a1.79,1.79,0,0,0,1.79-1.79V28A1.79,1.79,0,0,0,43.4,26.19ZM41.6,36.25h-5V29.78h5Z"/><path d="M59,26.19H50.4A1.79,1.79,0,0,0,48.61,28V38.05a1.79,1.79,0,0,0,1.79,1.79H59a1.79,1.79,0,0,0,1.79-1.79V28A1.79,1.79,0,0,0,59,26.19Zm-1.8,10.06h-5V29.78h5Z"/><path d="M43.4,46.31H34.77a1.81,1.81,0,0,0-1.8,1.8V58.17a1.81,1.81,0,0,0,1.8,1.8H43.4a1.8,1.8,0,0,0,1.79-1.8V48.11A1.8,1.8,0,0,0,43.4,46.31ZM41.6,56.37h-5V49.91h5Z"/><path d="M59,46.31H50.4a1.8,1.8,0,0,0-1.79,1.8V58.17A1.8,1.8,0,0,0,50.4,60H59a1.8,1.8,0,0,0,1.79-1.8V48.11A1.8,1.8,0,0,0,59,46.31Zm-1.8,10.06h-5V49.91h5Z"/><path d="M74.66,26.19H66A1.79,1.79,0,0,0,64.24,28V38.05A1.79,1.79,0,0,0,66,39.84h8.63a1.8,1.8,0,0,0,1.8-1.79V28A1.8,1.8,0,0,0,74.66,26.19Zm-1.8,10.06h-5V29.78h5Z"/><path d="M74.66,46.31H66a1.8,1.8,0,0,0-1.79,1.8V58.17A1.8,1.8,0,0,0,66,60h8.63a1.81,1.81,0,0,0,1.8-1.8V48.11A1.81,1.81,0,0,0,74.66,46.31Zm-1.8,10.06h-5V49.91h5Z"/><path d="M90.2,88.41H83.46V18.7a1.8,1.8,0,0,0-1.79-1.8h-10V10.42a1.8,1.8,0,0,0-1.79-1.8H60V1.8A1.8,1.8,0,0,0,58.22,0H33.78A1.8,1.8,0,0,0,32,1.8V8.62H22.1a1.8,1.8,0,0,0-1.79,1.8V16.9h-10a1.8,1.8,0,0,0-1.79,1.8V88.41H1.8A1.8,1.8,0,1,0,1.8,92H90.2a1.8,1.8,0,1,0,0-3.59ZM35.58,3.59H56.42v5H35.58Zm18,84.82H41.11L53.55,76Zm0-17.51-.12.11-15,15V78.37L50,66.84h3.57Zm-15.1,2.39V66.84H44.9ZM79.87,88.41H57.14V66.84h.63a1.8,1.8,0,1,0,0-3.59H34.23a1.8,1.8,0,1,0,0,3.59h.63V88.41H12.13V20.5H32.08a1.8,1.8,0,0,0,0-3.6H23.9V12.22H68.1V16.9H46.27a1.8,1.8,0,0,0,0,3.6h33.6V88.41Z"/><path d="M40.35,17.43a1.77,1.77,0,0,0-1.27-.53,1.79,1.79,0,0,0-1.79,1.8,1.79,1.79,0,0,0,1.79,1.8,1.81,1.81,0,0,0,1.8-1.8A1.79,1.79,0,0,0,40.35,17.43Z"/></g></g></svg>