<svg xmlns="http://www.w3.org/2000/svg" viewBox="0 0 57.66 92"><title>GE1</title><g id="Calque_2" data-name="Calque 2"><g id="icons"><path d="M36.4,86.12a1.8,1.8,0,0,0-2.34,1,2.1,2.1,0,0,1-2,1.29H25.55a2.1,2.1,0,0,1-1.95-1.29,1.79,1.79,0,1,0-3.33,1.34A5.64,5.64,0,0,0,25.55,92h6.56a5.64,5.64,0,0,0,5.28-3.54A1.8,1.8,0,0,0,36.4,86.12Z"/><path d="M57.5,76.86a8.89,8.89,0,0,0-4.26-6,8.88,8.88,0,0,0,3.2-8.26,22.63,22.63,0,0,0-12.57-17,20.62,20.62,0,0,0-9.42-33.94,7.74,7.74,0,0,0,1.82-5A6.62,6.62,0,0,0,29.65,0h0a6,6,0,0,0-3.89,1.35A4.9,4.9,0,0,0,24,5.16a1.8,1.8,0,0,0,3.59,0,1.32,1.32,0,0,1,.5-1.06,2.39,2.39,0,0,1,1.57-.51h0a3,3,0,0,1,3,3,4.23,4.23,0,0,1-4.24,4.23h-.13A20.61,20.61,0,0,0,13.79,45.58a22.63,22.63,0,0,0-12.57,17,8.88,8.88,0,0,0,3.2,8.26A8.87,8.87,0,0,0,1.88,84l3.85,4.91A8,8,0,0,0,12,92a7.92,7.92,0,0,0,4-1.06A8,8,0,0,0,19.43,81L17.1,75.24a10.57,10.57,0,0,0-.55-1.12H29.73a1.8,1.8,0,1,0,0-3.59H13.13V66.74a.88.88,0,0,1,.89-.88H43.64a.88.88,0,0,1,.89.88v4a8.83,8.83,0,0,0-4,4.46L38.23,81a8,8,0,0,0,3.41,9.9,7.92,7.92,0,0,0,4,1.06,8,8,0,0,0,6.31-3.06L55.78,84A8.89,8.89,0,0,0,57.5,76.86ZM11.8,31.49a17,17,0,1,1,17,17A17,17,0,0,1,11.8,31.49Zm2,45.09,2.34,5.79a4.4,4.4,0,0,1-7.54,4.35L4.71,81.8A5.28,5.28,0,0,1,6.23,74a5.27,5.27,0,0,1,7.53,2.6ZM43.65,58.67a1.79,1.79,0,0,0-1.79,1.79v1.8h-26v-1.8a1.8,1.8,0,0,0-3.59,0v2.18a4.47,4.47,0,0,0-2.68,4.1v2.54a5.35,5.35,0,0,1-4.76-6.13,19,19,0,0,1,12-14.95,20.55,20.55,0,0,0,24.12,0,19,19,0,0,1,12,14.95,5.35,5.35,0,0,1-4.76,6.13V66.74a4.49,4.49,0,0,0-2.67-4.1V60.46A1.79,1.79,0,0,0,43.65,58.67ZM53,81.8,49.1,86.72a4.4,4.4,0,0,1-7.54-4.35l2.34-5.79a5.28,5.28,0,0,1,3.17-3,5.28,5.28,0,0,1,6.9,4A5.27,5.27,0,0,1,53,81.8Z"/><path d="M38.14,71.05a1.84,1.84,0,0,0-1.27-.52,1.79,1.79,0,0,0-1.8,1.79,1.81,1.81,0,0,0,1.8,1.8,1.79,1.79,0,0,0,1.79-1.8A1.84,1.84,0,0,0,38.14,71.05Z"/><path d="M33.78,37.62a1.79,1.79,0,0,0-2.52.27,3.13,3.13,0,0,1-4.86,0,1.8,1.8,0,1,0-2.79,2.26,6.72,6.72,0,0,0,10.44,0A1.8,1.8,0,0,0,33.78,37.62Z"/><path d="M24.29,30.22a4.18,4.18,0,0,0-5.91,0,1.8,1.8,0,1,0,2.54,2.54.59.59,0,0,1,.83,0,1.8,1.8,0,0,0,2.54-2.54Z"/><path d="M39.28,30.22a4.18,4.18,0,0,0-5.91,0,1.8,1.8,0,0,0,2.54,2.54.59.59,0,0,1,.83,0,1.8,1.8,0,1,0,2.54-2.54Z"/></g></g></svg>