<svg xmlns="http://www.w3.org/2000/svg" viewBox="0 0 92 84.22"><title>CPE1</title><g id="Calque_2" data-name="Calque 2"><g id="icons"><path d="M78.2,2.15a1.63,1.63,0,0,0-.31,0,12.53,12.53,0,0,1-9-1.56L68.26.21,68.13.15,68,.09a1.61,1.61,0,0,0-1.06,0l-.13.06-.13.06L66,.62a12.58,12.58,0,0,1-9,1.56,1.53,1.53,0,0,0-1.81,1.19,1.63,1.63,0,0,0,0,.31V19.12a12.1,12.1,0,0,0,1.7,6.18,11.88,11.88,0,0,0,5.55,4.86l4.41,1.9a1.5,1.5,0,0,0,1.21,0l4.41-1.9A11.88,11.88,0,0,0,78,25.3a12.1,12.1,0,0,0,1.7-6.18V3.68A1.52,1.52,0,0,0,78.2,2.15ZM65.93,28.32l-2.27-1a8.8,8.8,0,0,1-4.13-3.61,9.1,9.1,0,0,1-1.27-4.6V5.44A15.55,15.55,0,0,0,65.93,4.1Zm10.74-9.2a9.07,9.07,0,0,1-1.27,4.6,8.87,8.87,0,0,1-4.13,3.62l-2.27,1V4.1a15.55,15.55,0,0,0,7.67,1.34Z"/><path d="M87.15,30a1.53,1.53,0,1,0-2.84,1.14.36.36,0,0,0,0,.09A36.73,36.73,0,0,1,87.4,46a1.54,1.54,0,0,0,3.07,0A39.62,39.62,0,0,0,87.15,30Z"/><path d="M46,6.12a39.85,39.85,0,0,0-30.3,14,1.53,1.53,0,1,0,2.33,2A36.78,36.78,0,0,1,46,9.19a1.54,1.54,0,0,0,0-3.07Z"/><path d="M90.6,58.89,80.39,48.68a9.22,9.22,0,0,0-1.89-1.45,7.67,7.67,0,1,0-10.79-1A7.36,7.36,0,0,0,69,47.43a8.94,8.94,0,0,0-1.52,1.22L64.64,51.3a2.46,2.46,0,0,1-3.46-.07L51,41a8.68,8.68,0,0,0-1.42-1.16,9.18,9.18,0,1,0-10.16,0A8.78,8.78,0,0,0,38,41l-7.81,7.82-6.89-5a9,9,0,0,0-1.28-1,9.32,9.32,0,0,0,1.7-1.49H27.6a1.53,1.53,0,0,0,1.53-1.53,1.66,1.66,0,0,0-.16-.69l-3.42-6.83A9.18,9.18,0,0,0,24.38,30a1.48,1.48,0,0,0-.34-.44,9.15,9.15,0,0,0-14.46.15,1.77,1.77,0,0,0-.16.22,8.83,8.83,0,0,0-1.23,2.43L4.77,39.17a1.53,1.53,0,0,0,.68,2.06,1.58,1.58,0,0,0,.68.16h3.92a9,9,0,0,0,1.68,1.47A9.84,9.84,0,0,0,10.36,44L1.4,53a4.8,4.8,0,0,0,3.39,8.18,4.85,4.85,0,0,0,3.1-1.15l-3.24,13A1.52,1.52,0,0,0,5.75,75a1.2,1.2,0,0,0,.38,0H9.19v4.6A4.6,4.6,0,0,0,16.86,83a4.6,4.6,0,0,0,7.67-3.41V75H27.6a1.53,1.53,0,0,0,1.53-1.53,1.14,1.14,0,0,0-.05-.37L25.3,57.9,27.42,59a6,6,0,0,0,3,.69h.47a4.82,4.82,0,0,0,3.38-1.41l2.57-2.56v23.9A4.58,4.58,0,0,0,44.46,83a4.6,4.6,0,0,0,7.67-3.41V55.72L57,60.63a8.09,8.09,0,0,0,8.89,1.85V79.62A4.59,4.59,0,0,0,73.6,83a4.6,4.6,0,0,0,7.67-3.41V63.24l2.56,2.42a4.79,4.79,0,0,0,6.77-6.77Zm-17-22.1a4.6,4.6,0,1,1-4.6,4.6A4.6,4.6,0,0,1,73.6,36.79Zm-35.27-4.6a6.14,6.14,0,1,1,6.13,6.13A6.13,6.13,0,0,1,38.33,32.19ZM10.77,38.32H8.62L11,33.61a.85.85,0,0,0,.09-.22,6.21,6.21,0,0,1,.85-1.71.39.39,0,0,0,.08-.1,6,6,0,0,1,9.75,0l.08.1a5.82,5.82,0,0,1,.85,1.71l.09.22,2.36,4.71H23a1.52,1.52,0,0,0-1.22.62,6.07,6.07,0,0,1-4.43,2.4,7.37,7.37,0,0,0-.94,0A6.08,6.08,0,0,1,12,38.94,1.52,1.52,0,0,0,10.77,38.32ZM88.43,63.49a1.72,1.72,0,0,1-1.21.5A1.78,1.78,0,0,1,86,63.46l-5.18-4.89a1.52,1.52,0,0,0-2.17,0,1.57,1.57,0,0,0-.42,1.07V79.62a1.54,1.54,0,1,1-3.07,0V68.15a1.53,1.53,0,0,0-3.06,0V79.62a1.54,1.54,0,1,1-3.07,0V59.69a1.54,1.54,0,0,0-2.59-1.12,5,5,0,0,1-7.13,0l-.07-.08-7.52-7.51a1.52,1.52,0,0,0-2.17,0,1.57,1.57,0,0,0-.46,1.1v27.6a1.53,1.53,0,1,1-3.06,0V61.22a1.54,1.54,0,0,0-3.07,0v18.4a1.54,1.54,0,1,1-3.07,0V52a1.52,1.52,0,0,0-1.53-1.53,1.5,1.5,0,0,0-1.08.45l-5.18,5.17a1.74,1.74,0,0,1-1.11.51l-.2,0h-.33l-.16,0a3.08,3.08,0,0,1-1.43-.35l-5.13-2.65a1.53,1.53,0,0,0-2.19,1.73L25.65,72H23a1.53,1.53,0,0,0-1.54,1.53v6.13a1.53,1.53,0,1,1-3.06,0V73.49a1.54,1.54,0,0,0-3.07,0v6.13a1.54,1.54,0,1,1-3.07,0V73.49A1.52,1.52,0,0,0,10.73,72H8.1l4.12-16.61a1.52,1.52,0,0,0-1.12-1.86,1.54,1.54,0,0,0-1.47.42L6,57.65a1.72,1.72,0,0,1-2.94-1.21,1.7,1.7,0,0,1,.51-1.23l9-9.07a6.06,6.06,0,0,1,3.64-1.72c.23,0,.46,0,.69,0s.46,0,.69,0a6.06,6.06,0,0,1,3.64,1.72,1.54,1.54,0,0,0,.19.17l8,5.77a1.53,1.53,0,0,0,2-.16l8.74-8.74a6.13,6.13,0,0,1,8.66,0L59,53.42a5.51,5.51,0,0,0,7.72.1l2.81-2.67a6.26,6.26,0,0,1,8.66,0L88.43,61.06A1.72,1.72,0,0,1,88.43,63.49Z"/></g></g></svg>