<svg xmlns="http://www.w3.org/2000/svg" viewBox="0 0 92 81.17"><title>CV1</title><g id="Calque_2" data-name="Calque 2"><g id="icons"><path d="M15.39,6.67a8.72,8.72,0,1,0,8.72,8.72A8.73,8.73,0,0,0,15.39,6.67Zm0,14.73a6,6,0,1,1,6-6A6,6,0,0,1,15.39,21.4Z"/><path d="M15.39,0A1.35,1.35,0,0,0,14,1.35V4.07a1.35,1.35,0,1,0,2.7,0V1.35A1.36,1.36,0,0,0,15.39,0Z"/><path d="M26.27,4.51a1.35,1.35,0,0,0-1.91,0L22.43,6.43a1.36,1.36,0,0,0,0,1.91,1.35,1.35,0,0,0,1.92,0l1.92-1.92A1.35,1.35,0,0,0,26.27,4.51Z"/><path d="M29.42,14H26.7a1.35,1.35,0,0,0,0,2.7h2.72a1.35,1.35,0,1,0,0-2.7Z"/><path d="M26.27,24.36l-1.92-1.93a1.36,1.36,0,0,0-1.92,1.92l1.93,1.92a1.35,1.35,0,0,0,1.91-1.91Z"/><path d="M15.39,25.35A1.35,1.35,0,0,0,14,26.7v2.72a1.35,1.35,0,1,0,2.7,0V26.7A1.36,1.36,0,0,0,15.39,25.35Z"/><path d="M8.34,22.43a1.36,1.36,0,0,0-1.91,0L4.51,24.36a1.36,1.36,0,0,0,1,2.31,1.36,1.36,0,0,0,1-.4l1.92-1.92A1.36,1.36,0,0,0,8.34,22.43Z"/><path d="M4.07,14H1.35a1.35,1.35,0,1,0,0,2.7H4.07a1.35,1.35,0,0,0,0-2.7Z"/><path d="M8.34,6.43,6.42,4.51A1.35,1.35,0,0,0,4.51,6.42L6.43,8.34a1.34,1.34,0,0,0,1.91,0A1.35,1.35,0,0,0,8.34,6.43Z"/><path d="M91.35,76.73a12.66,12.66,0,0,0-7.79-2.17C81.07,71.13,76.37,68.19,69.9,66a67,67,0,0,0-13.27-2.89l9.68-24.31a16.73,16.73,0,0,1,3.78,3.73,1.4,1.4,0,0,0,1.47.59,18.48,18.48,0,0,1,17.72,7.1,1.35,1.35,0,0,0,1.09.56,1.24,1.24,0,0,0,.33,0,1.33,1.33,0,0,0,1-1.12A46.67,46.67,0,0,0,90.15,31.5a1.35,1.35,0,1,0-2.59.78,44.6,44.6,0,0,1,1.7,13.84,21.49,21.49,0,0,0-16-5.91L73.3,40a50.44,50.44,0,0,0,2.24-9.93,39.63,39.63,0,0,0,0-9.3,29.5,29.5,0,0,0-1.16-5.27l0,0A26.15,26.15,0,0,1,85.48,27a1.35,1.35,0,0,0,2.41-1.21A29,29,0,0,0,72.24,11.49C62.57,7.63,52.5,8.9,43.13,15.15A46.81,46.81,0,0,0,31.87,25.79a1.35,1.35,0,0,0,1.35,2.11,18.48,18.48,0,0,1,17.71,7,1.41,1.41,0,0,0,1.56.62,17.48,17.48,0,0,1,5.26-.1L47,62.51h-.82a82.14,82.14,0,0,0-17.7,1.85A1.35,1.35,0,0,0,29,67a80.07,80.07,0,0,1,17.12-1.78c2.82,0,5.64.13,8.45.41h0a67,67,0,0,1,14.43,3c5.15,1.73,9.13,4,11.47,6.52a12.84,12.84,0,0,0-3.38,1.63,9.9,9.9,0,0,1-11.19,0,12.64,12.64,0,0,0-14.22,0,9.88,9.88,0,0,1-11.18,0,12.64,12.64,0,0,0-14.22,0,9.9,9.9,0,0,1-11.19,0,12.84,12.84,0,0,0-3.38-1.63c2.33-2.51,6.31-4.78,11.45-6.51A1.35,1.35,0,0,0,22.34,66c-6.46,2.16-11.15,5.1-13.64,8.53A12.66,12.66,0,0,0,.91,76.73,1.35,1.35,0,0,0,2.43,79,10,10,0,0,1,9.08,77.3a1.07,1.07,0,0,0,.25,0A10,10,0,0,1,13.61,79a12.6,12.6,0,0,0,14.22,0A9.94,9.94,0,0,1,39,79a12.6,12.6,0,0,0,14.22,0,9.92,9.92,0,0,1,11.18,0,12.59,12.59,0,0,0,14.22,0,10,10,0,0,1,4.28-1.63l.26,0A10,10,0,0,1,89.83,79a1.35,1.35,0,0,0,1.88-.36A1.37,1.37,0,0,0,91.35,76.73Zm-37-44.16,0-.09a48.36,48.36,0,0,1,4.44-7.55,1.35,1.35,0,0,0-2.19-1.59,50.51,50.51,0,0,0-3.7,6c-.39.75-.8,1.51-1.14,2.29v0a21.51,21.51,0,0,0-15.7-6.73,45.56,45.56,0,0,1,8.63-7.56,31.72,31.72,0,0,1,11.74-4.93A25.81,25.81,0,0,1,68,12.92l0,0a29.71,29.71,0,0,0-5.75,4.15c-.68.62-1.35,1.26-2,1.93a1.36,1.36,0,0,0,0,1.91,1.34,1.34,0,0,0,1.91-.05A30.71,30.71,0,0,1,68,16.06a21.08,21.08,0,0,1,3.08-1.63,20.53,20.53,0,0,1,1,2.83c1.63,5.87,1.19,12.21-.24,18.07-.31,1.26-.66,2.52-1.07,3.75v0a20.71,20.71,0,0,0-6.66-4.68l-.1,0A21.3,21.3,0,0,0,54.32,32.57Zm-.49,30.26-1.89-.14c-.7,0-1.41-.08-2.11-.11L60.44,36q1,.28,1.89.66l1.64.75Z"/></g></g></svg>