<svg xmlns="http://www.w3.org/2000/svg" viewBox="0 0 92 92"><title>FAS1</title><g id="Calque_2" data-name="Calque 2"><g id="icons"><path d="M19.74,89.16,17,85.35a1.8,1.8,0,0,0-2.93,2.08l2.71,3.81a1.77,1.77,0,0,0,1.46.76,1.83,1.83,0,0,0,1-.33A1.81,1.81,0,0,0,19.74,89.16Z"/><path d="M40.47,89.83l-2.95-14A26.44,26.44,0,0,0,26.33,59.19L20.05,55a6.33,6.33,0,0,0-8,.82V34.13a6,6,0,0,0-9.78-4.69A6,6,0,0,0,0,34.13V62A17.44,17.44,0,0,0,3.23,72.12l3.2,4.51a1.79,1.79,0,0,0,1.47.76,1.83,1.83,0,0,0,1-.33,1.8,1.8,0,0,0,.42-2.51L6.16,70A13.84,13.84,0,0,1,3.59,62V34.13a2.43,2.43,0,0,1,4.85,0v22.1a12.59,12.59,0,0,0,3.23,8.43L12,65c1.2,1.26,2.6,2.75,3.92,4.16l1.85,2,0,0,2.77,3a1.8,1.8,0,0,0,2.62-2.46S21,69.34,18.59,66.79L14.47,62.4l0,0a3,3,0,0,1,.06-4A2.71,2.71,0,0,1,18,58l6.29,4.22A22.93,22.93,0,0,1,34,76.54l2.94,14A1.79,1.79,0,0,0,38.71,92a1.61,1.61,0,0,0,.37,0A1.8,1.8,0,0,0,40.47,89.83Z"/><path d="M13.31,80.11h0a1.8,1.8,0,1,0-2.92,2.09h0a1.8,1.8,0,0,0,1.46.76,1.75,1.75,0,0,0,1-.34A1.8,1.8,0,0,0,13.31,80.11Z"/><path d="M89.75,29.44A6,6,0,0,0,80,34.13V55.78A6.33,6.33,0,0,0,72,55l-6.28,4.23A26.44,26.44,0,0,0,54.48,75.8l-2.95,14A1.8,1.8,0,0,0,52.92,92a1.61,1.61,0,0,0,.37,0,1.79,1.79,0,0,0,1.76-1.43l2.94-14a22.93,22.93,0,0,1,9.68-14.37L74,58a2.71,2.71,0,0,1,3.54.45,3,3,0,0,1,.06,4l0,0-8.65,9.22a1.8,1.8,0,1,0,2.62,2.46s7.36-7.84,8.56-9.1a4.15,4.15,0,0,0,.27-.32,12.55,12.55,0,0,0,3.24-8.43V34.13a2.43,2.43,0,0,1,4.85,0V62A13.84,13.84,0,0,1,85.84,70L72.26,89.16A1.8,1.8,0,0,0,73.73,92a1.77,1.77,0,0,0,1.46-.76L88.77,72.12A17.44,17.44,0,0,0,92,62V34.13A6,6,0,0,0,89.75,29.44Z"/><path d="M68.76,34.44l-3.2-.76V33.1A8,8,0,0,0,69,26.51V22.36a8,8,0,0,0-13.26-6.12,10.49,10.49,0,0,0-19.44,0A8,8,0,0,0,23,22.36v4.15a8,8,0,0,0,3.44,6.59v.57l-3.2.77a8.42,8.42,0,0,0-6.48,8.21V46a1.8,1.8,0,0,0,1.8,1.79h8.25c0,.22,0,.44,0,.66v6.46a1.8,1.8,0,0,0,1.8,1.8h10.8a1.8,1.8,0,1,0,0-3.59H37.55V49.41a1.8,1.8,0,0,0-3.59,0v3.72H30.41V48.46a7.43,7.43,0,0,1,5.72-7.25L41.06,40l3.3,7.51A1.81,1.81,0,0,0,46,48.61h0a1.81,1.81,0,0,0,1.64-1.08L51,40l4.91,1.17a7.44,7.44,0,0,1,5.73,7.26v4.66H58V49.41a1.8,1.8,0,0,0-3.6,0v3.72h-2a1.8,1.8,0,1,0,0,3.59h11a1.8,1.8,0,0,0,1.8-1.8V48.47q0-.33,0-.66h8.28a1.8,1.8,0,0,0,1.8-1.8V42.65A8.41,8.41,0,0,0,68.76,34.44ZM61,17.91a4.46,4.46,0,0,1,4.44,4.15H62.9a13,13,0,0,1-6-1.47A4.45,4.45,0,0,1,61,17.91Zm-4.45,8.34c0-.09,0-.17,0-.26v-1.6a16.73,16.73,0,0,0,6.38,1.27h2.51v.85a4.45,4.45,0,1,1-8.9,0ZM39.12,20.2h0a6.9,6.9,0,0,1,13.72-1.1l-3-1.78a1.81,1.81,0,0,0-2.29.4,7.73,7.73,0,0,1-5.94,2.78H39.12v-.3Zm-8.06-2.29a4.48,4.48,0,0,1,4.09,2.68,13,13,0,0,1-6,1.47h-2.5A4.46,4.46,0,0,1,31.06,17.91Zm-4.45,7.75h2.51a16.64,16.64,0,0,0,6.39-1.28v2.13a4.45,4.45,0,0,1-8.9,0v-.85Zm8.68,12.05a11,11,0,0,0-7.63,6.5H20.37V42.65a4.85,4.85,0,0,1,3.73-4.72l4.57-1.09a1.8,1.8,0,0,0,1.38-1.75v-.6a8.43,8.43,0,0,0,1,.06,8.14,8.14,0,0,0,1-.06v.59a1.79,1.79,0,0,0,.82,1.51,1.77,1.77,0,0,0,.64.26l2.68.64Zm5-2.79a8.39,8.39,0,0,0-1.44-.48l-3.21-.77v-.56a8.1,8.1,0,0,0,1.55-1.43,10.53,10.53,0,0,0,3.1,3.1v.14Zm7.8,2.64L46,42.34,43.9,37.55V36.27a10.66,10.66,0,0,0,2.12.21,10.29,10.29,0,0,0,2.09-.21ZM46,32.89a6.91,6.91,0,0,1-6.9-6.9v-1.9h2.46a11.3,11.3,0,0,0,7.63-2.95l3.71,2.18v2.93A6.92,6.92,0,0,1,46,32.89Zm5.68,2v-.12a10.63,10.63,0,0,0,3.12-3.11,8.25,8.25,0,0,0,1.54,1.41v.56l-3.21.77A8.25,8.25,0,0,0,51.7,34.93Zm20,9.28H64.34a11,11,0,0,0-7.64-6.5l-.9-.21,2.69-.65a1.59,1.59,0,0,0,.65-.26A1.79,1.79,0,0,0,60,35.08v-.59a8.26,8.26,0,0,0,1,.06,8.43,8.43,0,0,0,1-.06v.6a1.8,1.8,0,0,0,1.38,1.75l4.57,1.09a4.84,4.84,0,0,1,3.73,4.72v1.56Z"/><path d="M47.27,53.65a1.81,1.81,0,0,0-2.54,0A1.8,1.8,0,0,0,46,56.72a1.8,1.8,0,0,0,1.27-3.07Z"/><path d="M46,0a1.8,1.8,0,0,0-1.8,1.8V4.49a1.8,1.8,0,0,0,3.6,0V1.8A1.8,1.8,0,0,0,46,0Z"/><path d="M39.38,5.86,37.49,4A1.8,1.8,0,1,0,35,6.52L36.84,8.4a1.8,1.8,0,0,0,2.54-2.54Z"/><path d="M57,4a1.79,1.79,0,0,0-2.54,0L52.59,5.9a1.8,1.8,0,0,0,2.54,2.54L57,6.57A1.81,1.81,0,0,0,57,4Z"/></g></g></svg>