<svg xmlns="http://www.w3.org/2000/svg" viewBox="0 0 92 34.38"><title>BN1</title><g id="Calque_2" data-name="Calque 2"><g id="icons"><path d="M90.65,23.05a18.92,18.92,0,0,0-7.93,1.53,16.39,16.39,0,0,1-6.22,1.34,30.78,30.78,0,0,0,11-7.08,15.72,15.72,0,0,0,4.36-8.45,2.83,2.83,0,0,0-.65-2.23,2.79,2.79,0,0,0-2.11-1H62.28L53.67,1.06A5.63,5.63,0,0,0,50.38,0H38.8A2.79,2.79,0,0,0,36,2.79V7.2H34.23a1.51,1.51,0,0,1-1.08-.45l-1-1a4.22,4.22,0,0,0-3.63-1.19L13.43,6.88a11.44,11.44,0,0,0-4.6,1.79L4.65,11.45a4.23,4.23,0,0,0-1,6.16l5.58,7h0a18.83,18.83,0,0,0-7.92-1.53,1.35,1.35,0,1,0,0,2.69,16.55,16.55,0,0,1,7,1.35,19,19,0,0,0,7.92,1.53,19,19,0,0,0,7.93-1.53,16.55,16.55,0,0,1,7-1.35,16.56,16.56,0,0,1,7,1.35A19.08,19.08,0,0,0,46,28.62a19.08,19.08,0,0,0,7.93-1.53,16.51,16.51,0,0,1,6.95-1.35,16.56,16.56,0,0,1,7,1.35,19.08,19.08,0,0,0,7.93,1.53,19,19,0,0,0,7.93-1.53,16.6,16.6,0,0,1,7-1.35,1.35,1.35,0,1,0,0-2.69ZM44.47,2.7h5.91a2.94,2.94,0,0,1,1.72.55l5.54,4H44.47V2.7Zm-5.76.09a.09.09,0,0,1,.09-.09h3V7.2H38.71V2.79ZM70.39,25.16c-.55-.18-1.07-.38-1.59-.58a18.88,18.88,0,0,0-7.93-1.53,18.92,18.92,0,0,0-7.93,1.53A16.51,16.51,0,0,1,46,25.93a16.6,16.6,0,0,1-7-1.35,18.85,18.85,0,0,0-7.93-1.53,18.83,18.83,0,0,0-7.92,1.53,16.56,16.56,0,0,1-7,1.35,20.91,20.91,0,0,1-2.53-.14L5.8,15.92a2.33,2.33,0,0,1-.17-.26h5.8a1.35,1.35,0,1,0,0-2.7H7.24l3.08-2.05a8.78,8.78,0,0,1,3.52-1.37L28.92,7.22a1.54,1.54,0,0,1,1.31.43l1,1a4.2,4.2,0,0,0,3,1.24H89.15a.09.09,0,0,1,.07,0,.07.07,0,0,1,0,.07,10.91,10.91,0,0,1-.9,3H17.19a1.35,1.35,0,0,0,0,2.7H86.71C84.26,18.87,79.52,22.54,70.39,25.16Z"/><path d="M84.71,31A1.35,1.35,0,0,0,83,30.24l-.25.1a23.42,23.42,0,0,1-2.49.85,1.35,1.35,0,0,0,.34,2.65,2.09,2.09,0,0,0,.34,0,24.25,24.25,0,0,0,2.78-.95l.24-.09A1.34,1.34,0,0,0,84.71,31Z"/><path d="M74.86,31.67a16.24,16.24,0,0,1-6.06-1.33,19,19,0,0,0-7.93-1.53,19.08,19.08,0,0,0-7.93,1.53A16.51,16.51,0,0,1,46,31.69a16.6,16.6,0,0,1-7-1.35,19,19,0,0,0-7.93-1.53,19,19,0,0,0-7.92,1.53,16.12,16.12,0,0,1-6,1.33,1.35,1.35,0,0,0,.1,2.7,18.72,18.72,0,0,0,6.91-1.52,16.55,16.55,0,0,1,7-1.35,16.56,16.56,0,0,1,7,1.35A18.92,18.92,0,0,0,46,34.38a18.92,18.92,0,0,0,7.93-1.53,16.51,16.51,0,0,1,6.95-1.35,16.56,16.56,0,0,1,7,1.35,18.59,18.59,0,0,0,6.93,1.52,1.35,1.35,0,0,0,.1-2.7Z"/><path d="M11.77,31.19a23.61,23.61,0,0,1-2.5-.85,1.35,1.35,0,0,0-1,2.51,25.14,25.14,0,0,0,2.79.95,1.37,1.37,0,0,0,.34,0,1.35,1.35,0,0,0,.34-2.65Z"/></g></g></svg>