<svg xmlns="http://www.w3.org/2000/svg" viewBox="0 0 92 77.36"><title>BP1</title><g id="Calque_2" data-name="Calque 2"><g id="icons"><path d="M2.24,77.36a2.23,2.23,0,0,0,1.43-.52l8.14-6.79A2.06,2.06,0,0,1,14,69.92l8.41,5.45a6.75,6.75,0,0,0,7.44-.26L36.59,70A2.45,2.45,0,0,1,39,69.9l8.74,5.52a7.32,7.32,0,0,0,7.43,0l8.41-5.46a2.78,2.78,0,0,1,2.54,0l8.21,5.42a6.79,6.79,0,0,0,7.44-.2l9.37-6.93a2.23,2.23,0,1,0-2.65-3.59l-9.38,6.93a2.39,2.39,0,0,1-2.32.06L68.53,66.2a7.18,7.18,0,0,0-7.44,0l-8.41,5.46a2.92,2.92,0,0,1-2.61,0l-8.74-5.52a6.86,6.86,0,0,0-7.43.31l-6.79,5.11a2.34,2.34,0,0,1-2.32.08l-8.41-5.45A6.48,6.48,0,0,0,9,66.62L.8,73.41a2.24,2.24,0,0,0,1.44,4Z"/><path d="M31.2,42.09a6,6,0,1,0-5.95-6A6,6,0,0,0,31.2,42.09Z"/><path d="M72,2.1,59.93,22.62,42.19,33.39a5.52,5.52,0,0,0-2.14,2.12L26.25,59.29a3.36,3.36,0,0,0,5.8,3.4l10.78-16L62.64,33a5.28,5.28,0,0,0,2.12-2.12L79.21,6.25A4.16,4.16,0,1,0,72,2.1Z"/></g></g></svg>