<svg xmlns="http://www.w3.org/2000/svg" viewBox="0 0 92 67.47"><title>CE1</title><g id="Calque_2" data-name="Calque 2"><g id="icons"><path d="M11,15.82H34.21a1.52,1.52,0,0,0,0-3H11a1.52,1.52,0,0,0,0,3Z"/><path d="M1.52,21.16H24.71a1.53,1.53,0,0,0,0-3.05H1.52a1.53,1.53,0,0,0,0,3.05Z"/><path d="M90.48,11.63H67.29a1.52,1.52,0,1,0,0,3H90.48a1.52,1.52,0,0,0,0-3Z"/><path d="M56.27,18.49A1.52,1.52,0,0,0,57.79,20H81a1.52,1.52,0,1,0,0-3H57.79A1.52,1.52,0,0,0,56.27,18.49Z"/><path d="M44.25,16.91A7,7,0,0,0,54,15a7,7,0,0,0,1.16-3.4l.74.26a1.13,1.13,0,0,0,1.62-1A5.09,5.09,0,0,0,57,8.84c-.68-1.34.55-6.64-5-8.59-4-1.4-8.45,3.44-9.83,5.26a1.06,1.06,0,0,0,.26,1.57l0,.06A7,7,0,0,0,44.25,16.91Z"/><path d="M26.68,42C6.4,39.75,2.47,48.22,2.09,49.19a2.41,2.41,0,0,0-.16.84V61.14a2.28,2.28,0,0,0,4.56,0V50.63c.86-1.23,5.1-5.75,19.85-4.08,1.4.16,2.73.27,4,.36L33,49.33a1.73,1.73,0,0,1,.22,2.25l-6.62,9a4.36,4.36,0,0,0,.74,6.15,4.41,4.41,0,0,0,6.1-1.24l9.37-13.06A2.65,2.65,0,0,0,43,49.85l-1.76-3.22a29.2,29.2,0,0,0,10.16-3.24L53,44.83a3,3,0,0,0,2,.76,3.08,3.08,0,0,0,2.28-1A3,3,0,0,0,57,40.28l-.5-.45a69.4,69.4,0,0,0,5.88-5.7A14.2,14.2,0,0,1,76.09,29.8a2.35,2.35,0,0,0,1.23-.1l5-1.84.2-.07,0,.21-.9,4.9a2.25,2.25,0,0,0,.14,1.51,23.52,23.52,0,0,1,1.82,8.31,2.23,2.23,0,0,0,.22.84s1,2.1,1.8,3.74a5.85,5.85,0,0,1,.59,1.86,3.43,3.43,0,0,1-1.69-.56l-.27-.18a15.15,15.15,0,0,0-4.36-2.18A16.68,16.68,0,0,0,77.38,46c-2.63-.11-3.64-.33-4.07-1.4A2.28,2.28,0,0,0,69,45a33.51,33.51,0,0,0-.23,11.14,2.28,2.28,0,1,0,4.47-.86A23.15,23.15,0,0,1,73,50a15,15,0,0,0,4.25.63,12.84,12.84,0,0,1,1.75.13,18.83,18.83,0,0,1,2.82,1.57l.29.18c2.72,1.71,5.78,1.66,7.44-.11,1.5-1.6,1.57-4.25.17-7.08-.58-1.17-1.26-2.59-1.58-3.26a28.46,28.46,0,0,0-1.9-8.81l.8-4.38a4.44,4.44,0,0,0-6.23-5.24L76.33,25.2A18.77,18.77,0,0,0,59.06,31a61.58,61.58,0,0,1-6,5.77l-5.29-4.69,1.64-7.67a2.89,2.89,0,0,0,0-.88l.1-.2a1.83,1.83,0,0,0-1.15-2L48,21.18a3,3,0,0,0-.89-.36l-.16,0-6.48-2.33a1.79,1.79,0,0,0-2.13.84L26.8,41.63A2,2,0,0,0,26.68,42ZM40,41.69,43,36l4.69,4.15a26.18,26.18,0,0,1-7.89,2.09A2.27,2.27,0,0,1,40,41.69Z"/></g></g></svg>