<svg xmlns="http://www.w3.org/2000/svg" viewBox="0 0 92 92"><title>ChT1</title><g id="Calque_2" data-name="Calque 2"><g id="icons"><path d="M90.61,44.61H82A36.09,36.09,0,0,0,47.39,10V1.39a1.39,1.39,0,0,0-2.78,0V10A36.09,36.09,0,0,0,10,44.61H1.39a1.39,1.39,0,0,0,0,2.78H10A36.09,36.09,0,0,0,44.61,82v8.65a1.39,1.39,0,1,0,2.78,0V82A36.09,36.09,0,0,0,82,47.39h8.65a1.39,1.39,0,1,0,0-2.78ZM47.39,21.33A24.71,24.71,0,0,1,70.81,44.61H59.1A13.17,13.17,0,0,0,47.39,32.9ZM70.67,47.39A24.71,24.71,0,0,1,47.39,70.81V59.1A13.17,13.17,0,0,0,59.1,47.39ZM44.61,12.82V18.4A27.75,27.75,0,0,0,18.4,44.61H12.82A33.32,33.32,0,0,1,44.61,12.82Zm0,8.37V32.9A13.17,13.17,0,0,0,32.9,44.61H21.33A24.71,24.71,0,0,1,44.61,21.19Zm0,58A33.32,33.32,0,0,1,12.82,47.39H18.4A27.64,27.64,0,0,0,44.61,73.6v5.58Zm0-8.51A24.71,24.71,0,0,1,21.19,47.39H32.9A13.17,13.17,0,0,0,44.61,59.1V70.67ZM46,50.74a1.31,1.31,0,0,0-1.39,1.39v4.19a10.36,10.36,0,0,1-8.92-8.93h4.18a1.39,1.39,0,1,0,0-2.78H35.69a10.34,10.34,0,0,1,8.92-8.92v4.18a1.39,1.39,0,1,0,2.78,0V35.69a10.36,10.36,0,0,1,8.93,8.92H52.13A1.31,1.31,0,0,0,50.74,46a1.39,1.39,0,0,0,1.39,1.39h4.19a10.38,10.38,0,0,1-8.93,8.93V52.13A1.31,1.31,0,0,0,46,50.74Zm1.39,28.44V73.6A27.64,27.64,0,0,0,73.6,47.39h5.58A33.32,33.32,0,0,1,47.39,79.18ZM73.6,44.61A27.75,27.75,0,0,0,47.39,18.4V12.82A33.32,33.32,0,0,1,79.18,44.61Z"/></g></g></svg>