<svg xmlns="http://www.w3.org/2000/svg" viewBox="0 0 92 57.51"><title>CiS1</title><g id="Calque_2" data-name="Calque 2"><g id="icons"><path d="M90.63,39.14c-1.17-2-4.06-3.32-9.07-4a72.13,72.13,0,0,0-9.85-.62h-.9l-17.47-26a1.9,1.9,0,0,0-2-.81A40.13,40.13,0,0,1,44,8.46,23.54,23.54,0,0,1,30.46,4.7,14.47,14.47,0,0,1,26.56.93,1.91,1.91,0,0,0,24,.26a22.73,22.73,0,0,0-4.2,3.4l-.05,0a34.92,34.92,0,0,0-3.26,3.77l-.14.19H9.58a1.92,1.92,0,0,0,0,3.84h4.23A44.33,44.33,0,0,0,11,17.4,48.33,48.33,0,0,0,9.24,23H1.92a1.92,1.92,0,1,0,0,3.83H8.41c-.33,1.81-.58,3.68-.74,5.59a1.91,1.91,0,0,0,1,1.83l7.27,4.08H5.75a1.92,1.92,0,1,0,0,3.83h17l20.52,11.5H32.58a1.92,1.92,0,0,0,0,3.84H89A1.91,1.91,0,0,0,90.84,56C91.11,54.79,93.43,44,90.63,39.14ZM24.52,4.55c2.37,2.7,8.29,7.74,19.46,7.74a42.73,42.73,0,0,0,6.88-.59l.78,1.16A42.15,42.15,0,0,1,39,13.35a25.78,25.78,0,0,1-9.64-3.07,18.78,18.78,0,0,1-5.78-4.94C23.92,5,24.24,4.77,24.52,4.55ZM12,31.43l-.13.22-.21-.12c.08-.79.18-1.56.29-2.3l2.61,1.45A1.92,1.92,0,0,0,12,31.43ZM57.5,53.67H53.67A1.92,1.92,0,0,0,50,53L47.26,51.5l.06-.11A1.92,1.92,0,0,0,44,49.51l-.07.12L40.84,47.9l.07-.12a1.92,1.92,0,1,0-3.34-1.89L37.5,46l-3.08-1.72.09-.15a1.92,1.92,0,0,0-3.34-1.88l-.09.16L28,40.71l.1-.16a1.92,1.92,0,0,0-3.34-1.89l-.1.18-.48-.26h0l-2.59-1.45.1-.19a1.92,1.92,0,1,0-3.34-1.88l-.11.2-3.07-1.73.11-.2a1.9,1.9,0,0,0-.69-2.59L51.76,51.51h0l0,0,.11.05,0,0,.14.06h0l.14,0h0l.17,0h6.92A1.92,1.92,0,0,0,57.5,53.67Zm7.67,0H61.34a1.92,1.92,0,0,0-1.92-1.91h7.66A1.91,1.91,0,0,0,65.17,53.67Zm7.67,0H69a1.92,1.92,0,0,0-1.91-1.91h7.66A1.91,1.91,0,0,0,72.84,53.67Zm7.66,0H76.67a1.92,1.92,0,0,0-1.92-1.91h7.66A1.92,1.92,0,0,0,80.5,53.67Zm6.9,0H84.34a1.92,1.92,0,0,0-1.92-1.91h5.3C87.62,52.43,87.51,53.07,87.4,53.67Zm.71-5.75H53.19L12.69,25.27a2,2,0,0,0,0-.35v0A40.61,40.61,0,0,1,19.38,10c.5-.68,1-1.3,1.48-1.86a23.23,23.23,0,0,0,6.35,5.37,29.68,29.68,0,0,0,11.1,3.66,38.84,38.84,0,0,0,5.14.33A53,53,0,0,0,54,16.33l2.71,4L54.26,21.6a1.92,1.92,0,0,0,.88,3.62A2,2,0,0,0,56,25l2.82-1.45,1.24,1.84L57.6,26.68a1.92,1.92,0,0,0,.88,3.62,1.83,1.83,0,0,0,.87-.21l2.88-1.48,1.17,1.72L60.93,31.6a1.92,1.92,0,0,0,.88,3.62,2,2,0,0,0,.88-.21l2.86-1.48,2.66,4a1.93,1.93,0,0,0,1.66.85s.71,0,1.84,0c10.29,0,15,1.63,15.6,2.74C88.11,42.45,88.27,45.12,88.11,47.92Z"/></g></g></svg>