<svg xmlns="http://www.w3.org/2000/svg" viewBox="0 0 92 92"><title>CR1</title><g id="Calque_2" data-name="Calque 2"><g id="icons"><path d="M83.2,45.31a1.49,1.49,0,0,0-.62-.6L68.21,37.53a1.4,1.4,0,0,0-1.29,0L52.54,44.71a1.44,1.44,0,0,0-.62.6L43.3,61.12a1.54,1.54,0,0,0-.18.69V90.56A1.44,1.44,0,0,0,44.56,92h46A1.43,1.43,0,0,0,92,90.56V61.81a1.42,1.42,0,0,0-.18-.69Zm-22.82-.15,5.74,5.75v6l-5.74-5.75ZM69,50.91l5.75-5.75v6L69,56.91Zm0-4.07v-5.7L72.8,43Zm-2.88,0L62.32,43l3.8-1.9Zm-5.74,8.38,5.15,5.16H60.38Zm14.37,0v5.16H69.6Zm13.39,5.16H78.22L84.64,54ZM83.2,51.32l-5.58,5.59V45.45l3.27,1.63Zm-29-4.24,3.27-1.63V56.91l-5.58-5.59Zm2.67,13.3H47L50.49,54Zm7.79,28.75V80.5a2.88,2.88,0,0,1,5.75,0v8.63Zm8.62,0V80.5a5.75,5.75,0,0,0-11.5,0v8.63H46V63.25H89.12V89.13Z"/><path d="M57.5,66.13H50.31a1.43,1.43,0,0,0-1.43,1.43v7.19a1.44,1.44,0,0,0,1.43,1.44H57.5a1.45,1.45,0,0,0,1.44-1.44V67.56A1.44,1.44,0,0,0,57.5,66.13Zm-1.44,7.18H51.75V69h4.31Z"/><path d="M84.81,66.13H77.62a1.43,1.43,0,0,0-1.43,1.43v7.19a1.44,1.44,0,0,0,1.43,1.44h7.19a1.44,1.44,0,0,0,1.44-1.44V67.56A1.43,1.43,0,0,0,84.81,66.13Zm-1.43,7.18H79.06V69h4.32Z"/><path d="M69.6,30.19,83.38,16.41l6.17,6.17,2-2-7.19-7.19a1.44,1.44,0,0,0-2,0l-6.17,6.17-9-9a1.44,1.44,0,0,0-2,0l-9,9.05L45.58,9.05a1.42,1.42,0,0,0-2,0l-4,4L26.89.42a1.44,1.44,0,0,0-2,0L7.19,18.09,3.89,14.8a1.42,1.42,0,0,0-1-.42H0v2.87H2.28L12.64,27.61a1.44,1.44,0,0,0,2,0l11.21-11.2,6.17,6.17a1.44,1.44,0,0,0,2,0L44.56,12.1,62.65,30.19H0v2.87H92V30.19ZM33.06,19.53l-6.17-6.17a1.44,1.44,0,0,0-2,0l-11.2,11.2L9.22,20.13,25.88,3.47,37.5,15.09Zm33.06-6,8,8-8,8-8-8Z"/><path d="M56.06,11.5a5.75,5.75,0,1,0-5.75-5.75A5.76,5.76,0,0,0,56.06,11.5Zm0-8.62a2.88,2.88,0,1,1-2.87,2.87A2.87,2.87,0,0,1,56.06,2.88Z"/><rect x="73.31" y="7.19" width="2.88" height="2.88"/><rect x="81.94" y="7.19" width="2.88" height="2.88"/><rect x="86.25" y="1.44" width="2.88" height="2.88"/><rect x="77.63" y="1.44" width="2.88" height="2.88"/><rect x="69" y="1.44" width="2.88" height="2.88"/><path d="M37.38,74.75H21.56V71.88H18.69v2.87H2.88V71.88H0V92H2.88V89.13H18.69V92h2.87V89.13H37.38V92h2.87V71.88H37.38Zm-15.82,4,5.17,3.18-5.17,3.18Zm-2.87,6.36-5.17-3.18,5.17-3.18Zm6.51-7.49h8.54l-4.27,2.62ZM10.78,80.25,6.52,77.63h8.53ZM8,81.94,2.88,85.12V78.76Zm2.74,1.69,4.27,2.62H6.52Zm18.69,0,4.26,2.62H25.2Zm2.74-1.69,5.17-3.18v6.35Z"/><path d="M8.62,63.25h1.44v1.44h2.88V63.25h1.44v1.44h2.87V61.81a1.43,1.43,0,0,0-1.44-1.43H8.62Z"/><path d="M21.56,66.13V69h2.88V67.56h1.44V69h2.87V67.56h1.44V64.69H23A1.44,1.44,0,0,0,21.56,66.13Z"/><path d="M14.38,46v2.88h2.87V47.44h1.44v1.44h2.87V47.44H23V44.56H15.81A1.44,1.44,0,0,0,14.38,46Z"/><path d="M35.94,43.13V41.69h1.44V38.81H30.19a1.44,1.44,0,0,0-1.44,1.44v2.88h2.87V41.69h1.44v1.44Z"/><path d="M2.88,40.25H4.31v1.44H7.19V40.25H8.62V37.38H1.44A1.43,1.43,0,0,0,0,38.81v2.88H2.88Z"/><path d="M28.75,57.5h1.44v1.44h2.87V57.5H34.5v1.44h2.88V56.06a1.44,1.44,0,0,0-1.44-1.43H28.75Z"/><path d="M53.19,41.69V38.81a1.44,1.44,0,0,0-1.44-1.43H44.56v2.87H46v1.44h2.88V40.25h1.43v1.44Z"/><path d="M11.5,53.19H4.31v2.87H5.75V57.5H8.62V56.06h1.44V57.5h2.88V54.63A1.44,1.44,0,0,0,11.5,53.19Z"/><rect x="77.63" y="84.81" width="2.88" height="2.88"/><rect x="83.38" y="84.81" width="2.88" height="2.88"/></g></g></svg>