<svg xmlns="http://www.w3.org/2000/svg" viewBox="0 0 92 75.47"><title>CS1</title><g id="Calque_2" data-name="Calque 2"><g id="icons"><path d="M80.68,22V14.38h1.8a9,9,0,0,0,9-9,1.8,1.8,0,0,0-1.8-1.8H78.88a1.8,1.8,0,0,0-1.79,1.8v15.7A121.24,121.24,0,0,0,58.33,18.4c-3.44-.24-7-.38-10.53-.42v-7.2h1.79A8.93,8.93,0,0,0,56,8.15,9,9,0,0,0,58.58,1.8,1.8,1.8,0,0,0,56.78,0H46a1.8,1.8,0,0,0-1.8,1.8V18c-3.55,0-7.09.18-10.53.42a121.24,121.24,0,0,0-18.76,2.69V14.38h1.8a8.9,8.9,0,0,0,6.35-2.64A8.9,8.9,0,0,0,25.7,5.39a1.81,1.81,0,0,0-1.8-1.8H13.12a1.8,1.8,0,0,0-1.8,1.8V22C3.81,24.27,0,27.13,0,30.55V62.89C0,65.62,2.44,68,7.27,70,15,73.16,26.68,74.6,35.11,75.13c3.56.22,7.23.34,10.89.34s7.33-.12,10.89-.34C65.22,74.61,77,73.18,84.73,70c4.83-2,7.27-4.37,7.27-7.1V30.55C92,27.13,88.19,24.27,80.68,22Zm0-14.85h6.88a5.28,5.28,0,0,1-1.27,2,5.35,5.35,0,0,1-3.81,1.58h-1.8ZM47.8,3.59h6.88a5.47,5.47,0,0,1-1.28,2,5.33,5.33,0,0,1-3.81,1.58H47.8ZM14.91,7.19H21.8a5.43,5.43,0,0,1-1.28,2,5.35,5.35,0,0,1-3.81,1.58h-1.8ZM59.2,22.08a117,117,0,0,1,16,2.25l-8,5.7c-3.7-.51-8-.88-12.55-1.09ZM46,21.56c3,0,6.08.08,9.06.24l-4.66,7c-2.9-.06-5.9-.06-8.8,0l-4.66-7C39.92,21.64,43,21.56,46,21.56Zm-13.2.52,4.58,6.86c-4.57.21-8.85.58-12.55,1.09l-8-5.7A117,117,0,0,1,32.8,22.08ZM12.3,25.5l7.53,5.38A33.77,33.77,0,0,0,15.58,32c-1.59.57-3.7,1.53-4.12,3.32-6.09-1.93-7.87-3.88-7.87-4.79S5.46,27.54,12.3,25.5Zm9.8,44.6C8.66,67.93,3.59,64.58,3.59,62.89V57.3a22.16,22.16,0,0,0,3.72,1.89A69.88,69.88,0,0,0,22.1,62.93Zm0-10.81A64.48,64.48,0,0,1,8.67,55.86c-3.75-1.53-5.08-3-5.08-3.75V46.55a22.42,22.42,0,0,0,3.68,1.88A68.93,68.93,0,0,0,22.1,52.17Zm0-10.75C8.66,46.37,3.59,43,3.59,41.33V35.78C6.25,37.51,10.38,39,16,40.25c1.92.42,4,.81,6.15,1.14ZM33.42,71.41c-2.66-.2-5.25-.46-7.72-.79V63.44c2.47.32,5.06.59,7.72.79Zm.2-10.77c-2.74-.21-5.39-.48-7.92-.82V52.68c3.72.48,7.67.82,11.72,1l-.18.17A12.51,12.51,0,0,0,33.62,60.64ZM25.7,49.06V41.9a161.33,161.33,0,0,0,18.5,1.21V50.3A156,156,0,0,1,25.7,49.06ZM55,71.64c-2.37.12-4.77.2-7.18.22V66.48a1.8,1.8,0,0,0-3.6,0v5.38c-2.41,0-4.81-.1-7.18-.22v-9a9,9,0,0,1,18,0v9Zm11.32-1c-2.47.33-5.06.59-7.72.79V64.23c2.66-.2,5.25-.47,7.72-.79Zm0-10.8c-2.53.34-5.18.61-7.93.82A12.43,12.43,0,0,0,54.89,54a2.91,2.91,0,0,0-.31-.3c4.05-.2,8-.55,11.72-1v7.14Zm0-10.76A156,156,0,0,1,47.8,50.3V43.11A161.33,161.33,0,0,0,66.3,41.9ZM46,39.53a156.18,156.18,0,0,1-21.83-1.46c-2.43-.35-4.72-.75-6.85-1.21A2.53,2.53,0,0,0,17,36.7a11.67,11.67,0,0,1-1.56-.7c4.77-2.6,19.79-3.43,25.28-3.58,3.47-.1,7.11-.1,10.58,0a140.88,140.88,0,0,1,16.14,1.27c5.78.85,8.18,1.79,9.13,2.31a12.34,12.34,0,0,1-2.22.93c-2,.43-4.22.81-6.5,1.14A156.33,156.33,0,0,1,46,39.53ZM88.41,62.89c0,1.69-5.07,5-18.51,7.21V62.93a69.88,69.88,0,0,0,14.79-3.74,22.16,22.16,0,0,0,3.72-1.89Zm0-10.78c0,.78-1.33,2.22-5.08,3.75A64.48,64.48,0,0,1,69.9,59.29V52.17a68.93,68.93,0,0,0,14.83-3.74,22.42,22.42,0,0,0,3.68-1.88Zm0-10.78c0,1.68-5.07,5-18.51,7.21V41.39c5.51-.86,13.86-2.57,18.51-5.6Zm-7.88-6c-.43-1.82-2.59-2.79-4.23-3.36a33.71,33.71,0,0,0-4.13-1.11L79.7,25.5c6.84,2,8.71,4.11,8.71,5.05S86.62,33.42,80.53,35.35Z"/></g></g></svg>