<svg xmlns="http://www.w3.org/2000/svg" viewBox="0 0 62.45 92"><title>CSPI1</title><g id="Calque_2" data-name="Calque 2"><g id="icons"><path d="M31.22,0A31.26,31.26,0,0,0,0,31.22c0,6.92,4.07,17.44,12.82,33.11C18.79,75,24.73,84.06,25,84.44L29.27,91a2.35,2.35,0,0,0,3.91,0l4.29-6.51c.25-.37,6.14-9.33,12.16-20.11,8.74-15.67,12.82-26.19,12.82-33.11A31.26,31.26,0,0,0,31.22,0ZM45.54,62.05c-5.93,10.63-11.73,19.44-12,19.81l-2.34,3.55-2.34-3.54c-.24-.38-6.09-9.27-12-19.82C8.79,47.52,4.68,37.14,4.68,31.22a26.55,26.55,0,0,1,53.09,0C57.77,37.14,53.65,47.52,45.54,62.05Z"/><path d="M31.22,13.72A17.31,17.31,0,1,0,48.53,31,17.33,17.33,0,0,0,31.22,13.72Zm0,29.94A12.63,12.63,0,1,1,43.86,31,12.65,12.65,0,0,1,31.22,43.66Z"/><path d="M31.22,20a11,11,0,1,0,11,11A11,11,0,0,0,31.22,20Zm.7,3.57,2.83-1.52a9.66,9.66,0,0,1,4,2.93l-.67,3.11-2.16,1.06-4-2.89Zm-4.2-1.53,2.83,1.53v2.69l-4,2.89-2.17-1.06L23.74,25A9.67,9.67,0,0,1,27.72,22.07ZM23.29,36.46A9.49,9.49,0,0,1,21.65,32L24,29.43l2.13,1L27.7,35l-1.36,1.62Zm10.38,3.86a9.41,9.41,0,0,1-2.45.33,9.57,9.57,0,0,1-2.94-.46l-.86-2.69,1.38-1.66h4.86L35,37.44Zm2.41-3.73L34.75,35l1.62-4.54,2.12-1L40.8,32a9.51,9.51,0,0,1-1.3,3.95Z"/></g></g></svg>