<svg xmlns="http://www.w3.org/2000/svg" viewBox="0 0 92 92"><title>CT1</title><g id="Calque_2" data-name="Calque 2"><g id="icons"><path d="M84.92,7.08C79.64,1.8,72.19-.66,64,.15a37.27,37.27,0,0,0-22.4,11c-.55.55-1.09,1.12-1.61,1.7a12.07,12.07,0,0,0-2.52-3.65,12.37,12.37,0,1,0-9.59,21.08,12,12,0,0,0,3.23-.2,30,30,0,0,0-.21,11.72h0c0,3.7-.84,14-4,17.17l-6.46,6.46a3.28,3.28,0,0,0-3.19.83l-10,10a1.38,1.38,0,1,0,1.94,2l10-10a.5.5,0,0,1,.71,0l3.95,4a.51.51,0,0,1,0,.71L7.56,89.1a.51.51,0,0,1-.72,0L2.9,85.16a.51.51,0,0,1,0-.72l1.65-1.65a1.38,1.38,0,1,0-1.94-2L1,82.5a3.25,3.25,0,0,0,0,4.6l4,4a3.26,3.26,0,0,0,4.6,0L25.71,74.84a3.27,3.27,0,0,0,.83-3.19L33,65.19c3.18-3.18,13.47-4,17.17-4v0a23.79,23.79,0,0,0,2.83.38c.8.07,1.61.1,2.42.1a33.55,33.55,0,0,0,14.2-3.28,1.38,1.38,0,0,0,.65-1.88h0a1.38,1.38,0,0,0-1.8-.62,30.1,30.1,0,0,1-15.24,2.94,21.67,21.67,0,0,1-13.84-6.18c-5.72-5.72-7.66-14.48-5.26-23.53a12.82,12.82,0,0,0,3.29-2.36A12.36,12.36,0,0,0,40.88,16c.82-1,1.69-2,2.61-2.89A34.46,34.46,0,0,1,64.22,2.89C71.63,2.15,78.29,4.33,83,9c9.75,9.76,7.91,27.47-4.11,39.49a38.38,38.38,0,0,1-4.73,4,1.37,1.37,0,1,0,1.61,2.22,40.47,40.47,0,0,0,5.07-4.3,37.27,37.27,0,0,0,11-22.4C92.66,19.81,90.2,12.36,84.92,7.08Zm-63,17.7a9.58,9.58,0,0,1-2.74-5.64,9.64,9.64,0,0,1,8.38,8.38A9.56,9.56,0,0,1,21.87,24.78Zm19,32.58a25.93,25.93,0,0,0,2.65,1.56l-1,.13c-1.51.21-2.88.47-4.13.77Zm-3.39-2.8c.39.38.79.75,1.19,1.11L24.89,69.41l-2.3-2.3L36.33,53.36Q36.87,54,37.44,54.56Zm-2.8-3.39-2.46,2.46c.3-1.25.56-2.62.77-4.13,0-.33.1-.67.14-1A24.27,24.27,0,0,0,34.64,51.17Zm.84-26.39a9.56,9.56,0,0,1-5.22,2.68A12.36,12.36,0,0,0,19.19,16.38a9.59,9.59,0,0,1,7.89-7.89A12.39,12.39,0,0,0,38.15,19.57,9.59,9.59,0,0,1,35.48,24.78ZM32.59,14.06a9.47,9.47,0,0,1-2.75-5.63,9.59,9.59,0,0,1,8.38,8.38A9.55,9.55,0,0,1,32.59,14.06Z"/><path d="M80.21,11.8c-3.85-3.85-9.39-5.62-15.6-5A30.56,30.56,0,0,0,46.27,15.9a30.53,30.53,0,0,0-9.11,18.34c-.62,6.22,1.16,11.76,5,15.6A18.3,18.3,0,0,0,55.37,55c.79,0,1.58,0,2.39-.12A30.53,30.53,0,0,0,76.1,45.73a30.56,30.56,0,0,0,9.11-18.34C85.82,21.18,84.05,15.64,80.21,11.8Zm-1,3A14.68,14.68,0,0,1,81.9,20l-4-4ZM48.34,30.82l5.45-5.45,5.45,5.45-5.45,5.45Zm3.5,7.39-5.45,5.45-5.45-5.45,5.45-5.45Zm3.89-14.79L61.18,18l5.45,5.45-5.45,5.45Zm5.45,9.34,5.45,5.45-5.45,5.45-5.45-5.45Zm2-1.94,5.45-5.45L74,30.82l-5.45,5.45Zm7.39-7.4L76,18l5.45,5.45L76,28.87Zm6.72-10.6L76,14.08l-4-4A14.42,14.42,0,0,1,77.24,12.82Zm-8.66-2.24L74,16l-5.45,5.45L63.13,16Zm-3.7-1.05c.31,0,.62-.06.93-.07l-4.63,4.62-2.93-2.93A24.72,24.72,0,0,1,64.88,9.53Zm-9.29,2.85L59.24,16l-5.45,5.45L49.2,16.89A30.28,30.28,0,0,1,55.59,12.38Zm-8.33,6.46,4.58,4.58-5.45,5.45-3.65-3.65A30.16,30.16,0,0,1,47.26,18.84ZM39.89,34.51a25.15,25.15,0,0,1,1.63-6.62l2.93,2.93-4.63,4.63C39.84,35.14,39.86,34.83,39.89,34.51Zm3.29,12.36a14.46,14.46,0,0,1-2.71-5.24l4,4Zm2,2,1.26-1.27,4,4A14.46,14.46,0,0,1,45.13,48.82Zm8.66,2.24-5.45-5.45,5.45-5.45,5.45,5.45Zm3.7,1-.94.07,4.63-4.63,2.93,2.93A24.77,24.77,0,0,1,57.49,52.11Zm9.29-2.85-3.65-3.65,5.45-5.45,4.58,4.58A29.91,29.91,0,0,1,66.78,49.26Zm8.33-6.46-4.59-4.59L76,32.76l3.65,3.65A30.28,30.28,0,0,1,75.11,42.8Zm7.36-15.68a24.72,24.72,0,0,1-1.62,6.63l-2.94-2.93,4.63-4.63C82.53,26.5,82.5,26.81,82.47,27.12Z"/></g></g></svg>