<svg xmlns="http://www.w3.org/2000/svg" viewBox="0 0 92 91.96"><title>CTA1</title><g id="Calque_2" data-name="Calque 2"><g id="icons"><path d="M76.12,28.63,91.47,13.28a1.77,1.77,0,0,0,0-2.51,1.82,1.82,0,0,0-1.21-.53l.06.11L82,10.07,81.7,1.72a1.77,1.77,0,0,0-3-1.19L63.33,15.79a1.76,1.76,0,0,0-.51,1.31v1.78A40.08,40.08,0,1,0,73.09,29.15h1.77A1.78,1.78,0,0,0,76.12,28.63Zm.54,23.27A36.57,36.57,0,1,1,63,23.48l.09,3L56,33.55a24.32,24.32,0,1,0,2.49,2.52L65.61,29l2.93.11A36.53,36.53,0,0,1,76.66,51.9ZM39,53.09a1.77,1.77,0,0,0,2.5,0L45,49.54a5.32,5.32,0,1,1-4.8-3,5.31,5.31,0,0,1,2.29.54L39,50.59A1.77,1.77,0,0,0,39,53.09Zm6.15-8.67a8.9,8.9,0,1,0,2.5,2.51L56,38.51A20.71,20.71,0,1,1,53.53,36Zm21.6-19.08-.25-7.56L78.36,5.87l.2,5.92a1.78,1.78,0,0,0,1.77,1.78l5.92.19-12,11.83Z"/></g></g></svg>