<svg xmlns="http://www.w3.org/2000/svg" viewBox="0 0 92 91.68"><title>Glf1</title><g id="Calque_2" data-name="Calque 2"><g id="icons"><path d="M92,0H83.08L73.22,41.4H71.3L67.71,55.79a4.44,4.44,0,0,1-4.31,3.36H29.48A21.43,21.43,0,0,1,36.22,53l.75-.43V44.36H31.31a20.7,20.7,0,1,0-21.22,0H4.44v8.25l.74.43A21.39,21.39,0,0,1,15.87,69.68l2,22h5.66l1.32-14.53,5.32,9.31a10.37,10.37,0,0,0,9,5.22H65.31a10.42,10.42,0,0,0,10.12-8.14L84.64,41.4h-1.7ZM85.42,3h2.91L79.92,41.4H76.26ZM3,26.62A17.75,17.75,0,1,1,20.7,44.36,17.76,17.76,0,0,1,3,26.62ZM7.39,50.28v-3H34v3ZM20.7,67.64a8.53,8.53,0,0,0,1.12,4.21l.44.76L20.83,88.72h-.26L18.82,69.41a24.39,24.39,0,0,0-8.34-16.18h20.4a24.31,24.31,0,0,0-5.4,6.69l0,.11A8.5,8.5,0,0,0,20.7,67.64ZM72.54,82.91a7.44,7.44,0,0,1-7.23,5.81H39.16A7.41,7.41,0,0,1,32.74,85L24.39,70.38a5.53,5.53,0,0,1,4.8-8.27H63.4a7.4,7.4,0,0,0,7.18-5.61l3-12.14H81Z"/><circle cx="20.7" cy="13.31" r="1.48"/><circle cx="20.7" cy="19.22" r="1.48"/><circle cx="20.7" cy="26.62" r="1.48"/><path d="M16.52,20.34a1.49,1.49,0,0,0-2.09,0,1.48,1.48,0,1,0,2.09,0Z"/><circle cx="13.31" cy="26.62" r="1.48"/><path d="M16.52,30.8a1.48,1.48,0,1,0,0,2.09A1.47,1.47,0,0,0,16.52,30.8Z"/><circle cx="20.7" cy="34.01" r="1.48"/><path d="M27,30.8a1.48,1.48,0,1,0,0,2.09A1.48,1.48,0,0,0,27,30.8Z"/><circle cx="28.1" cy="26.62" r="1.48"/><path d="M27,20.34a1.48,1.48,0,1,0-2.1,2.09A1.48,1.48,0,0,0,27,20.34Z"/><circle cx="14.05" cy="15.09" r="1.48"/><path d="M9.92,18.68a1.48,1.48,0,1,0,.54,2A1.48,1.48,0,0,0,9.92,18.68Z"/><circle cx="7.39" cy="26.62" r="1.48"/><path d="M10.46,32.53a1.48,1.48,0,1,0-.54,2A1.48,1.48,0,0,0,10.46,32.53Z"/><circle cx="14.05" cy="38.14" r="1.48"/><circle cx="20.7" cy="39.92" r="1.48"/><circle cx="27.35" cy="38.14" r="1.48"/><path d="M33,32a1.48,1.48,0,1,0,.54,2A1.47,1.47,0,0,0,33,32Z"/><circle cx="34.01" cy="26.62" r="1.48"/><circle cx="32.23" cy="19.96" r="1.48"/><circle cx="27.36" cy="15.09" r="1.48"/><path d="M68.72,63.58l-.33.19a10.48,10.48,0,0,1-5,1.29H29.19a2.58,2.58,0,0,0-2.57,2.58A2.49,2.49,0,0,0,27,68.91l8.35,14.62a4.42,4.42,0,0,0,3.85,2.23H65.31a4.46,4.46,0,0,0,4.34-3.48l4.09-18.7Zm.37,7.4h-7v3h6.34l-.65,3H44.36v3H67.15l-.39,1.79a1.48,1.48,0,0,1-1.44,1.17H39.16a1.48,1.48,0,0,1-1.28-.75l-1.27-2.21H41.4v-3H34.92l-1.69-3H59.15V71H31.54l-1.69-3H63.4a13.33,13.33,0,0,0,6.07-1.48h.59Z"/></g></g></svg>