<svg xmlns="http://www.w3.org/2000/svg" viewBox="0 0 92 62.91"><title>GS1</title><g id="Calque_2" data-name="Calque 2"><g id="icons"><path d="M84.86,10.45v-.14h-.77l0,5.93a31.58,31.58,0,0,0-5.92-3.68,60.32,60.32,0,0,0-16.5-5V4.77c2.79-2.35,5.3,1.09,7.15-2.31-4.35.06-3.4-2.54-7.14-2.32V0H60.9l0,7.46c-1.39-.21-2.79-.39-4.18-.55a97.18,97.18,0,0,0-23.43.27c-.71.09-1.43.2-2.15.31L31.1,0h-.77V.14c-3.74-.22-2.79,2.38-7.14,2.32,1.85,3.4,4.36,0,7.15,2.31V7.62a55.68,55.68,0,0,0-18.5,6.05,28.54,28.54,0,0,0-3.92,2.66l0-6H7.14v.14C3.4,10.23,4.35,12.83,0,12.77c1.85,3.39,4.36,0,7.15,2.31V17c-2.73,2.43-4.84,5.53-4.67,9.16.2,4.21,2.72,7.49,6,10v6a13.34,13.34,0,0,1-2.75-3,10,10,0,0,1-.78-1.51,6.92,6.92,0,0,1-.39-1.21,7.15,7.15,0,0,1-.15-.78l0-.27,0,.27a6.65,6.65,0,0,0,0,.81,8.3,8.3,0,0,0,.71,3,11,11,0,0,0,1.09,2,14.75,14.75,0,0,0,1.7,2.07c.2.21.41.42.64.63v5.47a12.93,12.93,0,0,1-2.75-3,9.44,9.44,0,0,1-.78-1.5,8.48,8.48,0,0,1-.54-2l0-.28,0,.28a6.61,6.61,0,0,0,0,.81,8.3,8.3,0,0,0,.71,3,11,11,0,0,0,1.09,2A15.34,15.34,0,0,0,7.81,51c.2.21.41.42.64.63l.16.15a26.16,26.16,0,0,0,4.26,3.15c1,.61,2.09,1.19,3.23,1.74s2.36,1.06,3.61,1.55a62.27,62.27,0,0,0,8.09,2.42c1.43.33,2.89.61,4.38.86l.22,0,.43,1.38.89-.26.9-.26L31.44,52a59.31,59.31,0,0,1,29.12,0L57.38,62.39l.9.26.89.26.43-1.38.22,0c1.49-.25,3-.53,4.38-.86a62.27,62.27,0,0,0,8.09-2.42c1.25-.49,2.46-1,3.61-1.55s2.22-1.13,3.23-1.74a26.16,26.16,0,0,0,4.26-3.15l.17-.15.63-.63A13.65,13.65,0,0,0,87,47a8.33,8.33,0,0,0,.7-3,5,5,0,0,0,0-.81l0-.28s0,.1,0,.28a7.15,7.15,0,0,1-.15.78,9.67,9.67,0,0,1-.39,1.21,9.44,9.44,0,0,1-.78,1.5A12.08,12.08,0,0,1,85,48.26a17.5,17.5,0,0,1-1.45,1.36V44.15l.63-.63A13.41,13.41,0,0,0,87,39.47a8.25,8.25,0,0,0,.7-3,5.08,5.08,0,0,0,0-.81l0-.27s0,.09,0,.27a6.73,6.73,0,0,1-.15.78,9.17,9.17,0,0,1-.39,1.21,10,10,0,0,1-.78,1.51A12.66,12.66,0,0,1,85,40.78a15,15,0,0,1-1.46,1.37V36.21c3.27-2.52,5.79-5.82,6-10.09,0-3.75-2-6.8-4.75-9.23V15.08c2.79-2.35,5.3,1.08,7.15-2.31C87.65,12.83,88.6,10.23,84.86,10.45ZM62,11.32a61.94,61.94,0,0,1,10.77,3c3.1,1.18,6.91,2.89,9.6,5.38L67.61,28.6c-2.92-2.2-7.61-3.9-13.24-4.77ZM50.91,10.05c2.93.16,5.87.44,8.78.88L52,23.53a56.6,56.6,0,0,0-12,0l-7.68-12.6A90.4,90.4,0,0,1,50.91,10.05ZM12.32,17.63c5.25-3.39,11.53-5.19,17.68-6.31l7.63,12.51C32,24.7,27.31,26.4,24.39,28.6l-14.77-9A21.09,21.09,0,0,1,12.32,17.63ZM18.85,55A44.48,44.48,0,0,1,14,53c-1-.47-1.94-1-2.8-1.48l-.53-.33V46c.7.51,1.45,1,2.24,1.49,1,.61,2.09,1.19,3.23,1.74.88.42,1.8.82,2.75,1.2Zm0-7.47a44.47,44.47,0,0,1-4.89-2,29.25,29.25,0,0,1-2.8-1.48l-.53-.33V37.66c.77.48,1.55.93,2.34,1.34a47.34,47.34,0,0,0,5.88,2.57ZM16.92,36.81a24.54,24.54,0,0,1-8.39-5.55C7.45,30.06,5.88,27.8,6.2,26a13.29,13.29,0,0,1,1-3.4,11.16,11.16,0,0,1,.94-1.38l14.63,8.86a5.75,5.75,0,0,0-1.6,3.78c0,2.09,1.4,4,3.82,5.69A50.76,50.76,0,0,1,16.92,36.81ZM28.51,57.36A70.67,70.67,0,0,1,21,55.64V51.22a60.62,60.62,0,0,0,6.76,1.94c.72.17,1.44.32,2.17.47l1.28,4.17C30.33,57.67,29.41,57.52,28.51,57.36ZM71,55.64a70.67,70.67,0,0,1-7.47,1.72c-.9.16-1.82.31-2.74.44L62,53.63c.73-.15,1.45-.3,2.17-.47A60.62,60.62,0,0,0,71,51.22v4.42Zm0-7.48a73.21,73.21,0,0,1-7.47,1.73c-.8.14-1.61.27-2.44.39a61.1,61.1,0,0,0-30.1,0c-.83-.12-1.64-.25-2.44-.39A73.21,73.21,0,0,1,21,48.16V42.3a76.61,76.61,0,0,0,13.67,2.8,96,96,0,0,0,22.91,0A75.24,75.24,0,0,0,71,42.33Zm10.41,3.05-.53.33c-.86.51-1.79,1-2.8,1.48A44.48,44.48,0,0,1,73.15,55V50.4c.95-.38,1.87-.78,2.75-1.2,1.14-.55,2.22-1.13,3.23-1.74.79-.48,1.54-1,2.24-1.49v5.24Zm0-7.48-.53.33A29.25,29.25,0,0,1,78,45.54a43.69,43.69,0,0,1-4.89,2V41.6a50.62,50.62,0,0,0,5.42-2.3c.94-.48,1.88-1,2.8-1.57ZM85.72,26c0,3.25-3,6.32-5.94,8.24a42.05,42.05,0,0,1-12.65,5.27c2.37-1.63,3.74-3.56,3.74-5.63a5.75,5.75,0,0,0-1.6-3.78l14.58-8.84A8.79,8.79,0,0,1,85.72,26Z"/></g></g></svg>