<svg xmlns="http://www.w3.org/2000/svg" viewBox="0 0 91.84 92"><title>PA1</title><g id="Calque_2" data-name="Calque 2"><g id="icons"><path d="M90.08,0a1.81,1.81,0,0,0-1.91,1.92V54.05H62.67V1.92a1.92,1.92,0,1,0-3.83,0V54.05H33.35V1.92a1.92,1.92,0,1,0-3.83,0V54.05H3.83V1.92A1.81,1.81,0,0,0,1.92,0,1.82,1.82,0,0,0,0,1.92V90.08A1.82,1.82,0,0,0,1.92,92a1.81,1.81,0,0,0,1.91-1.92V79.16h25.5V90.08a1.92,1.92,0,1,0,3.83,0V79.16H58.65V90.08a1.92,1.92,0,1,0,3.83,0V79.16H88V90.08a1.92,1.92,0,1,0,3.83,0V1.92A1.59,1.59,0,0,0,90.08,0ZM3.83,75.33V57.88h25.5V75.32H3.83Zm29.33,0V57.88H58.65V75.32H33.16Zm29.51,0V57.88h25.5V75.32H62.67Z"/><polygon points="15.72 60.38 12.84 61.91 13.22 63.06 15.53 61.91 15.53 61.91 15.53 73.03 17.06 73.03 17.06 60.38 15.72 60.38"/><path d="M43.7,71.68h0l1-1c2.68-2.5,4.41-4.41,4.41-6.71a3.56,3.56,0,0,0-3.84-3.64,5.61,5.61,0,0,0-3.64,1.34l.58,1.15a3.84,3.84,0,0,1,2.68-1.15,2.22,2.22,0,0,1,2.49,2.49c0,1.91-1.53,3.64-4.79,6.71l-1.34,1.34v1h8V71.88H43.7v-.2Z"/><path d="M75.9,66.13h0a3.23,3.23,0,0,0,2.3-3.07c0-1.53-1.15-3.07-3.64-3.07a6.6,6.6,0,0,0-3.26,1l.38,1.34a4.86,4.86,0,0,1,2.49-.76,2,2,0,0,1,2.3,1.91c0,1.54-1.53,2.11-2.87,2.11h-1v1.34h1c1.72,0,3.26.77,3.26,2.49,0,1-.58,2.5-2.88,2.5a8.74,8.74,0,0,1-2.87-.77l-.39,1.34a6.83,6.83,0,0,0,3.26.77c3.07,0,4.6-1.73,4.6-3.84C78.77,67.66,77.62,66.51,75.9,66.13Z"/></g></g></svg>