<svg xmlns="http://www.w3.org/2000/svg" viewBox="0 0 92 91.97"><title>PBMX1</title><g id="Calque_2" data-name="Calque 2"><g id="icons"><path d="M56.79,83.27h0L7.89,34.37,0,42.27V92H92v-8.7Zm32.51,6H52.38L43.14,80,41.24,82l7.33,7.33H36.91L25.73,78.1,23.83,80l9.27,9.28H2.7V62.47l5.69,5.69,1.91-1.9-7.6-7.6V43.38l5.19-5.2L55.67,86H89.3Z"/><rect x="10.58" y="76.23" width="2.7" height="2.7" transform="translate(-51.36 31.15) rotate(-45)"/><rect x="16.93" y="82.59" width="2.7" height="2.7" transform="translate(-54 37.51) rotate(-45)"/><rect x="13.75" y="79.4" width="2.7" height="2.7" transform="translate(-52.68 34.33) rotate(-45)"/><rect x="10.64" y="47.41" width="2.7" height="2.7" transform="translate(-30.97 22.76) rotate(-45)"/><rect x="24.71" y="50.58" width="2.7" height="24.5" transform="translate(-36.79 36.82) rotate(-45)"/><rect x="13.82" y="50.59" width="2.7" height="2.7" transform="translate(-32.28 25.94) rotate(-45)"/><rect x="26.9" y="23.5" width="9.37" height="2.7" transform="translate(-8.19 19.12) rotate(-30)"/><rect x="19.57" y="29.66" width="2.7" height="2.7" transform="translate(-12.7 14.61) rotate(-30)"/><rect x="23.46" y="27.41" width="2.7" height="2.7" transform="translate(-11.06 16.26) rotate(-30)"/><rect x="24.92" y="40.56" width="10.78" height="2.7" transform="translate(-16.89 20.77) rotate(-30)"/><rect x="36.9" y="34.95" width="6.23" height="2.7" transform="translate(-12.79 24.87) rotate(-30)"/><rect x="26.34" y="30.73" width="13.7" height="2.7" transform="translate(-11.59 20.89) rotate(-30)"/><path d="M48.21,63.26l-.84,2.56a7.23,7.23,0,0,0,2.2.35,8,8,0,0,0,1.09-.08l-.42-2.67A4.36,4.36,0,0,1,48.21,63.26Z"/><path d="M45.16,59.07a4.43,4.43,0,0,1,2.2-3.82L46,52.92a7.12,7.12,0,0,0-3.56,6.15,7.46,7.46,0,0,0,.1,1.16l2.66-.44A4.37,4.37,0,0,1,45.16,59.07Z"/><path d="M45.75,61.27l-.1-.18-2.39,1.23c.05.1.1.2.16.3a7,7,0,0,0,2,2.2L47,62.64A4.48,4.48,0,0,1,45.75,61.27Z"/><path d="M53.72,57.58a4.42,4.42,0,0,1,0,3l2.54.91a7.07,7.07,0,0,0,0-4.8Z"/><path d="M85.75,40.72a4.46,4.46,0,0,1-.83,2.59l2.18,1.57a7.15,7.15,0,0,0,1.35-4.16,7.46,7.46,0,0,0-.06-.95l-2.68.36A3.81,3.81,0,0,1,85.75,40.72Z"/><path d="M80.47,33.67l.33,2.68a4.38,4.38,0,0,1,2,.22L83.74,34A7,7,0,0,0,80.47,33.67Z"/><path d="M85.32,38.82l2.43-1.16c-.08-.17-.16-.33-.25-.49a7.12,7.12,0,0,0-1.82-2.08L84,37.23a4.35,4.35,0,0,1,1.12,1.29C85.22,38.62,85.27,38.72,85.32,38.82Z"/><path d="M78.09,43.69a4.42,4.42,0,0,1-1-4.21l-2.59-.76a7.05,7.05,0,0,0,.67,5.55,6.76,6.76,0,0,0,.9,1.24Z"/><path d="M40.36,16.78l-.81,3,11.53,20-1.33,8.63h-.18A10.68,10.68,0,1,0,58.28,53l.26-.24L59.88,55l6.61-3.81-2-3.47,7.6-15.25,1.17,1.29a10.68,10.68,0,1,0,2-1.81l-4.74-5.24L72,25.92l-6.45-9a3.81,3.81,0,0,0-5.7-3.06L55,16.62l-2.49-4.31-3-.82A8.43,8.43,0,0,0,48.83,4l2.94-1.71L50.43,0,47,2a8.43,8.43,0,1,0-6.67,14.82Zm34.72,19,3.08,3.39a3.48,3.48,0,0,0-.34,1.51,3.53,3.53,0,1,0,3.53-3.53,3.58,3.58,0,0,0-1.19.21L77.08,34a8,8,0,1,1,4.27,14.67,8,8,0,0,1-6.27-12.86Zm5.43,4.9a.84.84,0,0,1,.84-.83.83.83,0,0,1,.83.83.84.84,0,0,1-.83.84A.85.85,0,0,1,80.51,40.72ZM49.57,58.23a.84.84,0,0,1,.83.84.83.83,0,0,1-.83.83.84.84,0,0,1-.84-.83A.85.85,0,0,1,49.57,58.23Zm0,8.8a8,8,0,0,1-.24-15.91l-.7,4.55a3.53,3.53,0,1,0,4.47,3.4,3.46,3.46,0,0,0-.22-1.21l3.39-3.08A8,8,0,0,1,49.57,67Zm4.88-14.24L51.37,55.6,52,51.49A8,8,0,0,1,54.45,52.79Zm-2-4,.81-5.29,3.93,6.81-.69.63A10.7,10.7,0,0,0,52.42,48.81Zm6.76-.38-4.45-7.72L42.44,19.43l.54-2,1.31-.75-.43,1.59-.3,1.12h0l5.49,9.51,7.46-4.31.78,1.35-.81,3.72L52.3,32.05l8.81,15.27Zm1.69,2.93-.34-.59,1.93-1.12.34.59Zm9.27-21L62.87,45,58,36.58l11.65-6.72ZM61.7,16.06a1.12,1.12,0,1,1-1.11,1.12A1.12,1.12,0,0,1,61.7,16.06Zm1.9,4.42h0a4.42,4.42,0,0,0,.73-.56L68,25.07l-1.77,1,1.57,1.72L56.68,34.24,56,33l2.88-1.66L59,30.8l.75-3.44L64,28.51l.7-2.6-5.12-1.37-.76-1.32ZM58,18A3.77,3.77,0,0,0,59.1,20L50,25.2,46.45,19l.23-.86.84-.49.86.24,2.47,4.27Zm-9.24-4,2,.54L52.7,18l-.86.5-1.68-2.91-2.71-.73ZM47.12,6.74l-3.47,2A2.39,2.39,0,0,1,41.82,9,2.35,2.35,0,0,1,41,8.57l5.51-3.19A6,6,0,0,1,47.12,6.74Zm-5.49-4a5.67,5.67,0,0,1,2.83.75L37.14,7.67,38,9.2a5.1,5.1,0,0,0,7,1.87l2.21-1.28A5.74,5.74,0,1,1,41.63,2.7Z"/><rect x="60.67" y="36.8" width="4.13" height="2.7" transform="translate(9.65 88.87) rotate(-75)"/></g></g></svg>