<svg xmlns="http://www.w3.org/2000/svg" viewBox="0 0 92 75.68"><title>PCO1</title><g id="Calque_2" data-name="Calque 2"><g id="icons"><path d="M83.84,31.16a13.85,13.85,0,0,0-12.74,8.4l-2.65,6.18,5.92-2.37a25.4,25.4,0,0,1,9.47-1.82,5.2,5.2,0,0,0,0-10.39Zm0,7.42A28.37,28.37,0,0,0,74,40.33a10.87,10.87,0,0,1,9.83-6.2,2.23,2.23,0,0,1,0,4.45Z"/><path d="M79.23,10.39h-.38a5.37,5.37,0,0,0-5.25,4.3,46.08,46.08,0,0,0-.89,9v9.86l5.52-9.2a13.14,13.14,0,0,1,4-4.16,5.35,5.35,0,0,0-3-9.8Zm1.32,7.33a16.1,16.1,0,0,0-4.86,5.1,42.55,42.55,0,0,1,.82-7.55,2.4,2.4,0,0,1,2.34-1.92h.38a2.39,2.39,0,0,1,1.32,4.37Z"/><path d="M17.93,39.56a13.83,13.83,0,0,0-12.74-8.4,5.2,5.2,0,0,0,0,10.39,25.4,25.4,0,0,1,9.47,1.82l5.92,2.37Zm-12.74-1a2.23,2.23,0,0,1,0-4.45A10.9,10.9,0,0,1,15,40.33,28.42,28.42,0,0,0,5.19,38.58Z"/><path d="M15.43,14.69a5.36,5.36,0,0,0-5.24-4.3H9.8a5.35,5.35,0,0,0-3,9.8,13.14,13.14,0,0,1,4,4.16l5.52,9.2V23.69A46.08,46.08,0,0,0,15.43,14.69Zm-6.95,3A2.39,2.39,0,0,1,9.8,13.35h.38a2.39,2.39,0,0,1,2.34,1.92,43.51,43.51,0,0,1,.83,7.55A16.24,16.24,0,0,0,8.48,17.72Z"/><path d="M90.52,65.29c-4.33,0-6.53,2.2-8.48,4.14-1.75,1.76-3.27,3.28-6.37,3.28s-4.61-1.52-6.37-3.28c-2-1.94-4.15-4.14-8.47-4.14s-6.53,2.2-8.47,4.14c-1.76,1.76-3.28,3.28-6.37,3.28s-4.61-1.52-6.37-3.28c-1.94-1.94-4.15-4.14-8.47-4.14s-6.53,2.2-8.47,4.14c-1.75,1.76-3.27,3.28-6.36,3.28S11.71,71.19,10,69.43C8,67.49,5.81,65.29,1.48,65.29H0v3H1.48c3.1,0,4.61,1.51,6.37,3.27,1.94,2,4.14,4.15,8.47,4.15s6.52-2.2,8.46-4.15c1.76-1.76,3.28-3.27,6.37-3.27s4.61,1.51,6.37,3.27c1.94,2,4.15,4.15,8.47,4.15s6.52-2.2,8.47-4.15c1.75-1.76,3.27-3.27,6.37-3.27s4.61,1.51,6.37,3.27c1.94,2,4.14,4.15,8.47,4.15s6.53-2.2,8.47-4.15c1.76-1.76,3.28-3.27,6.38-3.27H92v-3Z"/><path d="M90.52,54.9c-4.33,0-6.53,2.2-8.48,4.15-1.75,1.76-3.27,3.27-6.37,3.27s-4.61-1.51-6.37-3.27c-2-1.95-4.15-4.15-8.47-4.15s-6.53,2.2-8.47,4.15c-1.76,1.76-3.28,3.27-6.37,3.27s-4.61-1.51-6.37-3.27c-1.94-1.95-4.15-4.15-8.47-4.15s-6.53,2.2-8.47,4.15c-1.75,1.76-3.27,3.27-6.36,3.27S11.71,60.81,10,59.05C8,57.11,5.81,54.9,1.48,54.9H0v3H1.48c3.1,0,4.61,1.52,6.37,3.28,1.94,1.94,4.14,4.14,8.47,4.14s6.52-2.2,8.46-4.14c1.76-1.76,3.28-3.28,6.37-3.28s4.61,1.52,6.37,3.28c1.94,1.94,4.15,4.14,8.47,4.14s6.52-2.2,8.47-4.14c1.75-1.76,3.27-3.28,6.37-3.28s4.61,1.52,6.37,3.28c1.94,1.94,4.14,4.14,8.47,4.14s6.53-2.2,8.47-4.14c1.76-1.76,3.28-3.28,6.38-3.28H92v-3Z"/><path d="M90.52,44.52c-4.33,0-6.53,2.2-8.48,4.14-1.75,1.76-3.27,3.28-6.37,3.28s-4.61-1.52-6.37-3.28a13.57,13.57,0,0,0-4.89-3.52,22,22,0,0,0,3.85-12.49V23.74a22.26,22.26,0,0,0-44.52,0v8.91a22,22,0,0,0,3.85,12.49,13.42,13.42,0,0,0-4.91,3.52c-1.75,1.76-3.27,3.28-6.36,3.28S11.71,50.42,10,48.66C8,46.72,5.81,44.52,1.48,44.52H0v3H1.48c3.1,0,4.61,1.52,6.37,3.28C9.79,52.7,12,54.9,16.32,54.9s6.52-2.2,8.46-4.14c1.76-1.76,3.28-3.28,6.37-3.28s4.61,1.52,6.37,3.28C39.46,52.7,41.67,54.9,46,54.9s6.52-2.2,8.47-4.14c1.75-1.76,3.27-3.28,6.37-3.28S65.44,49,67.2,50.76c1.94,1.94,4.14,4.14,8.47,4.14s6.53-2.2,8.47-4.14c1.76-1.76,3.28-3.28,6.38-3.28H92v-3ZM46,4.45A19.29,19.29,0,0,1,65.21,22.26H26.79A19.29,19.29,0,0,1,46,4.45ZM26.71,25.23H65.29v5.93H62.11a5.93,5.93,0,0,0-5.72-4.45h-3a5.94,5.94,0,0,0-5.73,4.45H44.31a5.94,5.94,0,0,0-5.73-4.45h-3a5.93,5.93,0,0,0-5.72,4.45H26.71Zm32.64,7.42a3,3,0,0,1-3,3h-3a3,3,0,1,1,0-5.93h3A3,3,0,0,1,59.35,32.65Zm-17.8,0a3,3,0,0,1-3,3h-3a3,3,0,0,1,0-5.93h3A3,3,0,0,1,41.55,32.65ZM60.83,44.52c-4.33,0-6.53,2.2-8.47,4.14-1.76,1.76-3.28,3.28-6.37,3.28s-4.61-1.52-6.37-3.28c-1.94-1.94-4.15-4.14-8.47-4.14l-.34,0a19.13,19.13,0,0,1-4-10.41h3.12a5.93,5.93,0,0,0,5.72,4.45h3a5.94,5.94,0,0,0,5.73-4.45h3.38a5.94,5.94,0,0,0,5.73,4.45h3a5.93,5.93,0,0,0,5.72-4.45h3.12a19.13,19.13,0,0,1-4,10.41Z"/><rect x="83.1" y="25.23" width="2.97" height="2.97"/><rect x="89.03" width="2.97" height="2.97"/><rect x="68.26" y="7.42" width="2.97" height="2.97"/><rect x="20.77" y="2.97" width="2.97" height="2.97"/><rect x="17.81" y="31.16" width="2.97" height="2.97"/><rect y="4.45" width="2.97" height="2.97"/></g></g></svg>