<svg xmlns="http://www.w3.org/2000/svg" viewBox="0 0 92 85.31"><title>PCSO1</title><g id="Calque_2" data-name="Calque 2"><g id="icons"><path d="M91.93,70.88l-16.72-58a1.67,1.67,0,0,0-1.61-1.21H18.4a1.67,1.67,0,0,0-1.61,1.21L.07,70.88a1.43,1.43,0,0,0-.07.46v12.3a1.67,1.67,0,0,0,1.67,1.67H90.33A1.67,1.67,0,0,0,92,83.64V71.34A1.43,1.43,0,0,0,91.93,70.88ZM88.65,82H3.35V71.58L19.66,15.05H72.34L88.65,71.58Z"/><path d="M38.47,0A1.67,1.67,0,0,0,36.8,1.67V26.76a1.68,1.68,0,1,0,3.35,0V1.67A1.68,1.68,0,0,0,38.47,0Z"/><path d="M53.53,0a1.68,1.68,0,0,0-1.68,1.67V26.76a1.68,1.68,0,1,0,3.35,0V1.67A1.67,1.67,0,0,0,53.53,0Z"/><path d="M53.53,5H38.47a1.67,1.67,0,0,0,0,3.34H53.53a1.67,1.67,0,1,0,0-3.34Z"/><path d="M53.53,11.71H38.47a1.67,1.67,0,0,0,0,3.34H53.53a1.67,1.67,0,1,0,0-3.34Z"/><path d="M53.53,18.4H38.47a1.67,1.67,0,0,0,0,3.34H53.53a1.67,1.67,0,1,0,0-3.34Z"/><path d="M80.27,68.29,71.68,19.78A1.66,1.66,0,0,0,70,18.4H23.68a1.66,1.66,0,0,0-1.63,1.32L11.75,68.23a1.64,1.64,0,0,0,.33,1.4,1.66,1.66,0,0,0,1.3.62H78.62a1.67,1.67,0,0,0,1.28-.59A1.7,1.7,0,0,0,80.27,68.29ZM15.45,66.91,25,21.75H68.63l8,45.16Z"/></g></g></svg>