<svg xmlns="http://www.w3.org/2000/svg" viewBox="0 0 92 54.11"><title>SC1</title><g id="Calque_2" data-name="Calque 2"><g id="icons"><path d="M89.29,45.54V13H79.19l-.68-.57a53.63,53.63,0,0,0-16-9.35,50.58,50.58,0,0,0-35,0,53.63,53.63,0,0,0-16,9.35l-.68.57H2.71v32.5H0v8.57H92V45.54ZM45,3.63A47.82,47.82,0,0,1,74.72,14.07l-5,5.61a39.94,39.94,0,0,0-49.49,0l-5-5.61A47.82,47.82,0,0,1,45,3.63ZM22,45.54H14.46l-.65-10.72h8.82Zm35.34,0H34.67V16.25a35.75,35.75,0,0,1,22.66.68V45.54Zm20.21,0H70l-.64-10.72h8.82Z"/></g></g></svg>