<svg xmlns="http://www.w3.org/2000/svg" viewBox="0 0 73.99 92"><title>SSk1</title><g id="Calque_2" data-name="Calque 2"><g id="icons"><path d="M73.06,83.28a3,3,0,0,0-3.23-.8,5,5,0,0,1-3.07,0L44.51,74.89a5.34,5.34,0,0,0,1.43-2.26l4.84-14.2a8.22,8.22,0,0,0-5.16-10.17l-6.14-2.1,1.46-4.52,12.1,4a4.77,4.77,0,0,0,6.13-6.3,4.85,4.85,0,0,0-2.9-2.74l-9.2-3.07,1.29-3.87a7.36,7.36,0,0,0-4.68-9.2l-3.07-1a7.37,7.37,0,0,0-9.2,4.68l-3.33,9.73L8.39,27.4l.43-1.25A1.64,1.64,0,0,0,5.75,25l-.46,1.35-3.09-1a1.64,1.64,0,0,0-1.13,3.07l3.16,1-.58,1.7a1.62,1.62,0,0,0,1,2.1.59.59,0,0,0,.48.16,1.93,1.93,0,0,0,1.62-1.13l.62-1.81L27,37,25.6,41.16a14,14,0,0,0,8.88,17.43l2.26.64a1.71,1.71,0,0,1,1,.81,1,1,0,0,1,.16,1.13l-2.74,7.91a5.53,5.53,0,0,0-.23,2.54L10,63.11a3.34,3.34,0,0,0-4,2.1l-1,3.06a3.19,3.19,0,0,0,.16,2.42A3.77,3.77,0,0,0,7,72.31L63.86,91.52a7.31,7.31,0,0,0,2.58.48,11.27,11.27,0,0,0,3.39-.65,7.71,7.71,0,0,0,4-4.68A3.56,3.56,0,0,0,73.06,83.28ZM34.48,25.18a4.52,4.52,0,0,1,3.87-2.91h1.46l3.06,1a4.25,4.25,0,0,1,2.59,5.17l-1.78,5.32A3.15,3.15,0,0,0,43.84,35a1.64,1.64,0,0,0,1,.81l10.65,3.55a1.45,1.45,0,0,1,1,1,1.55,1.55,0,0,1,0,1.45,1.7,1.7,0,0,1-2.1.65L40.77,37.93c-.21,0-.43,0-.63,0l-.66-.22a1.57,1.57,0,0,1-.16-1.41l1.45-4.69a1.63,1.63,0,1,0-3.06-1.12l-1.45,4.68A4.83,4.83,0,0,0,36,36.58L31.27,35Zm1.29,30.18A10.61,10.61,0,0,1,29,42L30.28,38l7.48,2.46a3.18,3.18,0,0,0,.35.26l-2,5.91a1.62,1.62,0,0,0,1,2.09l7.75,2.59a4.82,4.82,0,0,1,3.07,6.13l-4.68,14A2.84,2.84,0,0,1,41.9,73a2.65,2.65,0,0,1-1.93.17,2.43,2.43,0,0,1-1.62-3.07l2.75-7.91a4.9,4.9,0,0,0-.33-3.71A4.54,4.54,0,0,0,38,56ZM68.54,88.13a5,5,0,0,1-3.72.32L8,69.24l1-3.06,56.81,19.2a8,8,0,0,0,5.17,0A5.76,5.76,0,0,1,68.54,88.13Z"/><path d="M46.75,19.37a9.69,9.69,0,1,0-9.69-9.69A9.72,9.72,0,0,0,46.75,19.37Zm0-16.14a6.46,6.46,0,1,1-6.46,6.45A6.47,6.47,0,0,1,46.75,3.23Z"/></g></g></svg>