<svg xmlns="http://www.w3.org/2000/svg" viewBox="0 0 92 79.91"><title>TBB1</title><g id="Calque_2" data-name="Calque 2"><g id="icons"><path d="M56.17,23.37c-.46-.45-1-1-1.56-1.45l-.08-.06h0a32.37,32.37,0,0,0-19.09-8h-.11A32.84,32.84,0,0,0,9.65,23.35c-.15.15-.3.3-.44.47A32.89,32.89,0,0,0,.08,49a.22.22,0,0,1,0,.08v0a32.35,32.35,0,0,0,8,19.17c.51.62,1,1.17,1.49,1.62a33,33,0,0,0,20.84,9.78s.08.25.12.25h0c.78,0,1.57-.16,2.35-.16A32.82,32.82,0,0,0,55.05,71c.4-.33.76-.75,1.08-1.07a33,33,0,0,0,0-46.59Zm6.56,19.34a32.92,32.92,0,0,0-22.35,7.93c-1.46-1.6-3-3.21-4.5-4.8a237.44,237.44,0,0,0,18-20.55l.36.32A32.36,32.36,0,0,1,62.73,42.71ZM9.59,65.06A29.14,29.14,0,0,1,3.43,50.53l.57,0a32.85,32.85,0,0,0,22.86-9.26c1.41,1.35,2.63,2.54,3.74,3.66l.88.87A237.09,237.09,0,0,1,9.59,65.06ZM29,39a32.81,32.81,0,0,0,7.84-21.82,29.39,29.39,0,0,1,14.55,6.12A229.89,229.89,0,0,1,33.68,43.57l-.85-.87C31.7,41.57,30.46,40.37,29,39ZM33.69,16.9a29.68,29.68,0,0,1-7,19.92c-4.56-4.27-9.24-8.31-14-12.08a29.73,29.73,0,0,1,20.11-7.85ZM10.56,27c4.72,3.76,9.42,7.82,14,12.1A29.69,29.69,0,0,1,3.17,47.37,29.7,29.7,0,0,1,10.56,27Zm1.1,40.43a241.19,241.19,0,0,0,22-19.36c1.49,1.56,3,3.13,4.41,4.7a32.86,32.86,0,0,0-9.17,23.28,29.5,29.5,0,0,1-17.06-8.43C11.79,67.59,11.72,67.51,11.66,67.45Zm20.42,8.88A29.72,29.72,0,0,1,40.2,55.16c4.14,4.66,8.07,9.46,11.71,14.3A29.65,29.65,0,0,1,32.08,76.33Zm22.27-8.87C50.66,62.55,46.68,57.7,42.49,53A29.7,29.7,0,0,1,63,45.89C62.73,53.92,60,61.7,54.35,67.46Z"/><path d="M51.44,10.58a1.57,1.57,0,0,0,1.12-.46L59.72,3A1.58,1.58,0,0,0,57.48.73L50.33,7.88a1.58,1.58,0,0,0,0,2.24A1.6,1.6,0,0,0,51.44,10.58Z"/><path d="M58.36,18.13a1.55,1.55,0,0,0,1.11.47,1.58,1.58,0,0,0,1.12-.47l8.07-8.07a1.58,1.58,0,0,0-2.23-2.23L58.36,15.9A1.57,1.57,0,0,0,58.36,18.13Z"/><path d="M71.43,6.64a1.57,1.57,0,0,0,1.12-.46L76,2.7A1.59,1.59,0,0,0,76,.46a1.6,1.6,0,0,0-2.24,0L70.32,3.94a1.58,1.58,0,0,0,1.11,2.7Z"/><path d="M91.54,1A1.58,1.58,0,0,0,89.3,1L66.37,23.93a1.58,1.58,0,1,0,2.24,2.23L91.54,3.24A1.6,1.6,0,0,0,91.54,1Z"/></g></g></svg>