<svg xmlns="http://www.w3.org/2000/svg" viewBox="0 0 92 61.33"><title>TGJNG1</title><g id="Calque_2" data-name="Calque 2"><g id="icons"><path d="M90.09,0H1.92A1.92,1.92,0,0,0,0,1.92v57.5a1.92,1.92,0,0,0,1.92,1.91H90.09A1.92,1.92,0,0,0,92,59.42V1.92A1.92,1.92,0,0,0,90.09,0ZM88.16,3.83V5.37A3,3,0,0,1,86.81,4l-.09-.19Zm-36.84,22-2.69-1.95.73-2.24a9.7,9.7,0,0,1,3.93,2.76Zm4.26,5a1.48,1.48,0,0,0,0,.21v.08l0,.42s0,.08,0,.12,0,.22,0,.33,0,.07,0,.1,0,.26-.07.39l0,.13c0,.11,0,.22-.07.33a.19.19,0,0,0,0,.08l-.12.39a.29.29,0,0,0,0,.09,7.3,7.3,0,0,1-.31.82v0a9,9,0,0,1-.66,1.27l-2.24-1.63,1-3.16Zm-6.13-1.63-1.32,4.06H43.87l-1.32-4.06L46,26.75ZM38.71,24.45a9.7,9.7,0,0,1,3.93-2.76l.73,2.24-2.69,1.95Zm1.36,9.6-2.23,1.63a10.39,10.39,0,0,1-.67-1.28v0a7.26,7.26,0,0,1-.3-.82l0-.09-.12-.4s0,0,0-.07-.06-.22-.08-.33l0-.13c0-.13-.05-.26-.07-.39v-.1c0-.11,0-.22,0-.33l0-.12,0-.42V31.1a1.48,1.48,0,0,1,0-.21h2.63ZM3.83,3.83H5.28L5.19,4A3,3,0,0,1,3.83,5.37Zm0,17.25H5.75v3.84H3.83Zm0,7.67H5.75v3.83H3.83Zm0,7.67H5.75v3.83H3.83Zm0,21.08V56.05l.19.1A2.94,2.94,0,0,1,5.37,57.5Zm40.25,0H9.39a6.87,6.87,0,0,0-3.74-4.83A8.6,8.6,0,0,0,3.83,52V44.08h9.59a1.92,1.92,0,0,0,1.91-1.91v-23a1.92,1.92,0,0,0-1.91-1.92H3.83V9.39A6.87,6.87,0,0,0,8.66,5.65a8.08,8.08,0,0,0,.66-1.82H44.08V17.39l-.52.08h0l-.12,0-.18,0-.19,0-.13,0-.23.05-.08,0-.28.08h0a13.41,13.41,0,0,0-7.92,6.17.56.56,0,0,0,0,.08,13.42,13.42,0,0,0-1.62,4.68h0s0,0,0,0,0,.27,0,.4v.07c0,.15,0,.31,0,.46v0c0,.15,0,.29,0,.43a.34.34,0,0,0,0,.1c0,.15,0,.3,0,.45s0,.22,0,.32v.13c0,.07,0,.13,0,.2a.92.92,0,0,0,0,.16.92.92,0,0,0,0,.16c0,.06,0,.12,0,.18l0,.13a1.36,1.36,0,0,0,0,.2v.11a1.49,1.49,0,0,1,0,.21s0,.06,0,.1l0,.22v.07c0,.08,0,.17.05.25a.06.06,0,0,0,0,0,9.43,9.43,0,0,0,.25,1.08.19.19,0,0,0,0,.08s0,.1,0,.15,0,.11,0,.16l0,.11a1.72,1.72,0,0,1,.07.21.14.14,0,0,1,0,.07c0,.08.06.17.1.26v0A13.37,13.37,0,0,0,36,39.62l.08.08a13.7,13.7,0,0,0,4.12,3.07l.06,0A13.29,13.29,0,0,0,44.08,44V57.5ZM11.5,28.75v3.83H9.58V28.75ZM9.58,24.92V21.08H11.5v3.84Zm1.92,11.5v3.83H9.58V36.42Zm35,3.82h-1a9.06,9.06,0,0,1-2-.33l.9-2.75h3.32l.9,2.75a9.06,9.06,0,0,1-2,.33ZM88.16,57.5H86.63A2.94,2.94,0,0,1,88,56.15l.18-.1Zm0-40.25H78.59a1.92,1.92,0,0,0-1.93,1.92v23a1.91,1.91,0,0,0,1.93,1.91h9.57V52a8.94,8.94,0,0,0-1.81.66,6.87,6.87,0,0,0-3.74,4.83H47.92V44a13.29,13.29,0,0,0,3.81-1.15l.06,0a13.58,13.58,0,0,0,4.12-3.07l.08-.08a13.17,13.17,0,0,0,2.6-4.33l0,0A1.34,1.34,0,0,1,58.7,35a.19.19,0,0,1,0-.07,1.72,1.72,0,0,1,.07-.21l0-.11s0-.1,0-.16,0-.1,0-.15a.19.19,0,0,0,0-.07,10.12,10.12,0,0,0,.25-1.09s0,0,0,0l0-.25a.64.64,0,0,0,0-.07l0-.22s0-.07,0-.1a1.49,1.49,0,0,1,0-.21.43.43,0,0,1,0-.11V32s0-.09,0-.13,0-.12,0-.18a.92.92,0,0,0,0-.16V30.22a.34.34,0,0,0,0-.1c0-.14,0-.29,0-.43v0c0-.15,0-.3,0-.46s0,0,0-.07,0-.27,0-.4a.08.08,0,0,1,0,0h0A13.42,13.42,0,0,0,57.65,24a.56.56,0,0,0,0-.08,13.41,13.41,0,0,0-7.92-6.17h0l-.27-.08-.09,0-.23-.05-.13,0-.19,0-.18,0-.12,0h0l-.52-.08V3.83H82.68a8.08,8.08,0,0,0,.66,1.82,6.87,6.87,0,0,0,4.82,3.74v7.86ZM86.25,32.58V28.75h1.91v3.83Zm1.91,3.84v3.83H86.25V36.42Zm-1.91-11.5V21.08h1.91v3.84ZM80.5,32.58V28.75h1.91v3.83Zm1.91,3.84v3.83H80.5V36.42ZM80.5,24.92V21.08h1.91v3.84Z"/></g></g></svg>