<svg xmlns="http://www.w3.org/2000/svg" viewBox="0 0 92 79.33"><title>THB1</title><g id="Calque_2" data-name="Calque 2"><g id="icons"><path d="M43.83,12.58A1.83,1.83,0,0,0,45.15,12l8.5-8.5A1.87,1.87,0,1,0,51,.88l-8.5,8.5a1.88,1.88,0,0,0,0,2.65A1.85,1.85,0,0,0,43.83,12.58Z"/><path d="M52,21.55a1.88,1.88,0,0,0,2.66,0L64.27,12a1.88,1.88,0,0,0-2.66-2.66L52,18.9A1.88,1.88,0,0,0,52,21.55Z"/><path d="M67.56,7.9a1.83,1.83,0,0,0,1.32-.55L73,3.2A1.88,1.88,0,0,0,70.37.55L66.23,4.69a1.89,1.89,0,0,0,0,2.66A1.87,1.87,0,0,0,67.56,7.9Z"/><path d="M91.45,1.2a1.88,1.88,0,0,0-2.65,0L61.56,28.44a1.88,1.88,0,0,0,2.66,2.65L91.45,3.86A1.89,1.89,0,0,0,91.45,1.2Z"/><path d="M29.41,20.51a29.09,29.09,0,0,0-9.73,1.69l-.05,0A29.46,29.46,0,0,0,5.9,32.33l0,0A29.38,29.38,0,1,0,29.41,20.51ZM52.29,38.17A25.87,25.87,0,0,1,55,46.9l-3.69-4Zm-2.82-4.34-1.81,8.32L41.89,45,31.28,37.24V30.07L38.84,26A25.85,25.85,0,0,1,49.47,33.83Zm-10,14-4,11.32H23.36l-4-11.32,10.07-7.34ZM29.41,24.18a26.69,26.69,0,0,1,4.32.39l-4.28,2.31-4.28-2.32A26.84,26.84,0,0,1,29.41,24.18ZM20,26l7.57,4.08v7.18L17,45l-5.8-2.83L9.4,33.77A25.77,25.77,0,0,1,20,26ZM6.57,38.11l1,4.76L3.87,46.92A25.4,25.4,0,0,1,6.57,38.11ZM8.2,64.46a25.47,25.47,0,0,1-4.4-12L10,45.66l5.67,2.78L20,60.58l-3.61,4.33Zm3.25,3.86,4.36.24,1.26,3.94A26.49,26.49,0,0,1,11.45,68.32ZM36,74.78a25.83,25.83,0,0,1-6.56.88,25.56,25.56,0,0,1-7.86-1.24l-2.31-7.2,3.68-4.43h13l3.62,4.29Zm4.91-1.85L43,68.42l5.3-1A25.89,25.89,0,0,1,40.88,72.93Zm1.53-8.15-3.56-4.21,4.33-12.13,5.65-2.77L55,52.42A25.51,25.51,0,0,1,51.55,63Z"/></g></g></svg>