<svg xmlns="http://www.w3.org/2000/svg" viewBox="0 0 92 61.64"><title>TO1</title><g id="Calque_2" data-name="Calque 2"><g id="icons"><path d="M92,0H0V61.64H92ZM78.4,40h9.68V43.4H78.4Zm9.69-3.51H78.4V25.17h9.69ZM73.29,25.09V36.47A5.55,5.55,0,0,1,67.51,34a5.47,5.47,0,0,1-.21-6.09C68.57,25.72,70.61,24.91,73.29,25.09ZM69.2,21.73c.74-2.45,3-5,6-7v7.05Zm6,18.22v6.67h12.9v4.56C82.08,52.4,71.49,46,69.15,40ZM78.4,21.73V16.66h9.69V13.44H77.15a22.73,22.73,0,0,1,11.06-3.2V21.73Zm-37.32.32c-3.88,1.53-5.56,5.12-5.33,9.34a9.41,9.41,0,0,0,6.54,8.85,2.27,2.27,0,0,1,1.83,2.59c-.08,4.81,0,9.63,0,14.69h-40c-.73-2,0-2.53,1.89-2.85,8.28-1.39,14.93-5.43,19.23-12.78,6.07-10.39,2.71-23.37-7.77-30.46A26.25,26.25,0,0,0,5.73,6.93C4,6.72,3.46,6,4,4.19H44.09V9.6c0,2.38-.13,4.76,0,7.12C44.3,19.26,44,20.89,41.08,22.05ZM44,24.55V36.83a5.73,5.73,0,0,1-4.87-5.39C38.84,28.33,40.59,25.73,44,24.55ZM3.93,46.62H16.49A26.24,26.24,0,0,1,3.93,51.54Zm9.64-24.88H4V16.66h9.62ZM3.89,25.19h9.68V36.44H3.89ZM18,36.54V25.17a5.49,5.49,0,0,1,5.78,2.49,5.33,5.33,0,0,1,.16,6.06C22.6,35.91,20.6,36.71,18,36.54ZM22.35,40a23.45,23.45,0,0,1-5.56,6.43V40ZM16.79,21.74V15.28a19.34,19.34,0,0,1,5.41,6.46ZM4,13.44V10.37c3.15-.19,6.87,1,10.2,3.07ZM3.93,40h9.64V43.4H3.93ZM88,57.49H47.47c0-5.34,0-10.53.05-15.72,0-.44.73-1.06,1.25-1.27,4.61-1.89,7.09-5.25,7.07-9.72s-2.44-7.68-7.13-9.67a2.22,2.22,0,0,1-1.2-1.54c-.09-5.05,0-10.1,0-15.37H88V6.37a66.06,66.06,0,0,0-6.71,1.5C71.72,11.14,65,17.26,63.38,27.66c-1.41,9,2.29,16.14,9.27,21.66A25.73,25.73,0,0,0,86.1,54.77C87.84,55,88.67,55.51,88,57.49ZM47.59,37V24.72a6,6,0,0,1,4.84,6.06A6.12,6.12,0,0,1,47.59,37Z"/></g></g></svg>