<svg xmlns="http://www.w3.org/2000/svg" viewBox="0 0 72.83 92"><title>TPJG1</title><g id="Calque_2" data-name="Calque 2"><g id="icons"><path d="M55.58,0H17.25A17.27,17.27,0,0,0,0,17.25v57.5A17.27,17.27,0,0,0,17.25,92H55.58A17.27,17.27,0,0,0,72.83,74.75V17.25A17.27,17.27,0,0,0,55.58,0Zm5.75,5.13a13.54,13.54,0,0,1,7.11,8.28h-2A11.48,11.48,0,0,0,63.7,9.13,11.83,11.83,0,0,0,61.33,7.3V5.13Zm1.92,12.12H61.33a5.86,5.86,0,0,0-3.83-5.42v-2a7.73,7.73,0,0,1,5.75,7.42Zm-1.92,46V59.41h1.92v3.84Zm1.92,3.83v3.83H61.33V67.08Zm-1.92-11.5V51.75h1.92v3.83Zm0-7.67V44.08h1.92v3.83Zm0-7.66V36.41h1.92v3.84Zm0-7.67V28.75h1.92v3.83Zm0-7.67V21.08h1.92v3.83Zm-17.25,46H28.75a1.92,1.92,0,0,0-1.92,1.92v3.83H17.25a2,2,0,0,1-1.92-1.91V47.91H27a9.58,9.58,0,0,0,18.77,0H57.5V74.75a2,2,0,0,1-1.92,1.91H46V72.83A1.92,1.92,0,0,0,44.08,70.91Zm-1.91,3.84v1.91H30.67V74.75Zm-.34-26.84a5.74,5.74,0,0,1-10.83,0ZM31,44.08a5.74,5.74,0,0,1,10.83,0Zm14.8,0a9.58,9.58,0,0,0-18.77,0H15.33V17.25a2,2,0,0,1,1.92-1.92h9.58v3.83a1.91,1.91,0,0,0,1.92,1.92H44.08A1.91,1.91,0,0,0,46,19.16V15.33h9.58a2,2,0,0,1,1.92,1.92V44.08ZM19.17,11.5V9.58H23V11.5Zm11.5,5.75V15.33h11.5v1.92Zm23-13.42h1.91A13.56,13.56,0,0,1,57.5,4V5.91a11.14,11.14,0,0,0-1.92-.16H53.67Zm0,7.67H49.83V9.58h3.84ZM46,3.83h3.83V5.75H46Zm0,7.67H42.17V9.58H46ZM38.33,3.83h3.84V5.75H38.33Zm0,7.67H34.5V9.58h3.83ZM30.67,3.83H34.5V5.75H30.67V3.83Zm0,7.67H26.83V9.58h3.84ZM23,3.83h3.83V5.75H23ZM15.33,4a13.56,13.56,0,0,1,1.92-.14h1.92V5.75H17.25a11.14,11.14,0,0,0-1.92.16Zm0,5.86v2a5.86,5.86,0,0,0-3.83,5.42H9.58a7.73,7.73,0,0,1,5.75-7.42ZM9.58,63.25V59.41H11.5v3.84Zm1.92,3.83v3.83H9.58V67.08ZM9.58,55.58V51.75H11.5v3.83Zm0-7.67V44.08H11.5v3.83Zm0-7.66V36.41H11.5v3.84Zm0-7.67V28.75H11.5v3.83Zm0-7.67V21.08H11.5v3.83ZM7.78,7.77A13.5,13.5,0,0,1,11.5,5.13V7.3A11.83,11.83,0,0,0,9.13,9.13a11.69,11.69,0,0,0-2.72,4.29h-2A13.39,13.39,0,0,1,7.78,7.77ZM3.83,17.25H5.75v3.83H3.83Zm0,7.66H5.75v3.84H3.83Zm0,7.67H5.75v3.83H3.83Zm0,7.67H5.75v3.83H3.83Zm0,7.66H5.75v3.84H3.83Zm0,7.67H5.75v3.83H3.83Zm0,7.67H5.75v3.83H3.83Zm0,7.66H5.75v3.84H3.83Zm7.67,16a13.61,13.61,0,0,1-7.11-8.28h2a11.69,11.69,0,0,0,2.72,4.29A11.83,11.83,0,0,0,11.5,84.7ZM9.58,74.75H11.5a5.86,5.86,0,0,0,3.83,5.42v2a7.75,7.75,0,0,1-3.49-2A7.65,7.65,0,0,1,9.58,74.75Zm9.59,13.41H17.25A13.56,13.56,0,0,1,15.33,88V86.09a12.23,12.23,0,0,0,1.92.16h1.92Zm0-7.66H23v1.91H19.17Zm7.66,7.66H23V86.25h3.83Zm0-7.66h3.84v1.91H26.83Zm7.67,7.66H30.67V86.25H34.5Zm0-7.66h3.83v1.91H34.5V80.5Zm7.67,7.66H38.33V86.25h3.84Zm0-7.66H46v1.91H42.17Zm7.66,7.66H46V86.25h3.83Zm0-7.66h3.84v1.91H49.83ZM57.5,88a13.56,13.56,0,0,1-1.92.13H53.67V86.25h1.91a12.23,12.23,0,0,0,1.92-.16Zm0-5.86v-2a5.72,5.72,0,0,0,2.14-1.37,5.62,5.62,0,0,0,1.69-4h1.92A7.61,7.61,0,0,1,61,80.16,7.7,7.7,0,0,1,57.5,82.17Zm7.56,2a13.34,13.34,0,0,1-3.73,2.64V84.7a11.83,11.83,0,0,0,2.37-1.83,11.43,11.43,0,0,0,2.72-4.29h2A13.38,13.38,0,0,1,65.06,84.22ZM69,74.75H67.08V70.91H69Zm0-7.67H67.08V63.25H69Zm0-7.67H67.08V55.58H69Zm0-7.66H67.08V47.91H69Zm0-7.67H67.08V40.25H69Zm0-7.67H67.08V32.58H69Zm0-7.66H67.08V24.91H69Zm0-7.67H67.08V17.25H69Z"/></g></g></svg>