<svg xmlns="http://www.w3.org/2000/svg" viewBox="0 0 92 79.07"><title>TVB1</title><g id="Calque_2" data-name="Calque 2"><g id="icons"><path d="M51.53,10.29a1.57,1.57,0,0,0,1.12-.46l7.14-7.14A1.58,1.58,0,0,0,57.56.46L50.42,7.6a1.58,1.58,0,0,0,1.11,2.69Z"/><path d="M58.43,17.84a1.6,1.6,0,0,0,1.11.46,1.58,1.58,0,0,0,1.12-.47l8-8.06a1.57,1.57,0,1,0-2.23-2.22l-8.05,8.06A1.57,1.57,0,0,0,58.43,17.84Z"/><path d="M91.54.74a1.57,1.57,0,0,0-2.23,0L66.44,23.61a1.57,1.57,0,0,0,0,2.23,1.58,1.58,0,0,0,2.23,0L91.54,3A1.58,1.58,0,0,0,91.54.74Z"/><path d="M64.59,38.06a.43.43,0,0,0,0-.05,32.7,32.7,0,0,0-5.11-10.88l-.1-.12a32.27,32.27,0,0,0-5.1-5.58,33.16,33.16,0,0,0-3-2.29,32.42,32.42,0,0,0-18.44-5.72,20.69,20.69,0,0,0-2.16.08,32.25,32.25,0,0,0-9.31,1.95,33.61,33.61,0,0,0-4,1.8l0,0h0a32.08,32.08,0,0,0-6,4.11q-.8.67-1.35,1.23a32.46,32.46,0,0,0-4.89,5.95v0A32.06,32.06,0,0,0,.87,38.74,32.51,32.51,0,0,0,0,46.21c0,.21,0,.43,0,.65,0,.93.07,1.86.17,2.76A32.63,32.63,0,0,0,10.51,70.3l.28.25c.19.17.37.34.56.49a32.61,32.61,0,0,0,2.94,2.29,32,32,0,0,0,7.45,3.81A32.34,32.34,0,0,0,28,78.69c.91.13,1.83.23,2.66.28s1.53.09,2.18.1a32.8,32.8,0,0,0,8.59-1.14,31.13,31.13,0,0,0,6.41-2.5A1.83,1.83,0,0,0,48,75.3a32.51,32.51,0,0,0,6.19-4.21A32.81,32.81,0,0,0,65,52.6a33.14,33.14,0,0,0,.81-4.9c0-.43.26-.89.26-1.3v-.13a32.33,32.33,0,0,0-1.26-8.19l-.23,0Zm-5.27,9.75a38.46,38.46,0,0,0-5.2-2.24c-.57-.2-1.12-.38-1.66-.53s-.92-.28-1.39-.4a34.47,34.47,0,0,0-7.59-1.14c-.6,0-1.21,0-1.83,0h0a38.53,38.53,0,0,0-8,.85A35.34,35.34,0,0,1,27.88,39c-.2-.24-.41-.5-.61-.76l.11,0a34.21,34.21,0,0,1,18.74-3.84,24,24,0,0,1,3.49.47,33.11,33.11,0,0,1,5.28,1.39,36.54,36.54,0,0,1,7,3.21,29.38,29.38,0,0,1,1,6.86v.18c0,.32-.23.67-.26,1.06,0,.69-.2,1.37-.27,2.06C61.43,48.94,60.33,48.35,59.32,47.81ZM56.89,29a1.47,1.47,0,0,0,.1.13A29.53,29.53,0,0,1,60.24,35a37.2,37.2,0,0,0-4.31-1.79,34.48,34.48,0,0,0-5.76-1.52,25.42,25.42,0,0,0-3.8-.51A37.24,37.24,0,0,0,26,35.37l-.1.05a1.51,1.51,0,0,0-.45.29,34.39,34.39,0,0,1-2.7-4.92c-.23-.51-.44-1-.64-1.5a1.51,1.51,0,0,0,.35-.2,33.11,33.11,0,0,1,4.32-3l.31-.18c.31-.17.63-.35,1-.53a33.79,33.79,0,0,1,8.44-3.1A34.16,34.16,0,0,1,49.83,22c.82.58,1.62,1.2,2.37,1.85A28.76,28.76,0,0,1,56.89,29ZM22.51,18.41A29.1,29.1,0,0,1,31,16.64a15.3,15.3,0,0,1,1.56-.07h.33a29.66,29.66,0,0,1,10,1.76,37.38,37.38,0,0,0-7,.9,36.51,36.51,0,0,0-9.16,3.36c-.38.17-.76.38-1.14.59l-.33.18A36.3,36.3,0,0,0,21,26.2a29.87,29.87,0,0,1-.76-3.07,1.8,1.8,0,0,0-.06-.28,30.68,30.68,0,0,1-.44-3.24A27,27,0,0,1,22.51,18.41ZM12.26,24.88q.57-.57,1.2-1.11a29.65,29.65,0,0,1,3.31-2.47c.1.74.21,1.49.36,2.23,0,0,0,0,0,.08s0,.05,0,.07a35.93,35.93,0,0,0,1.38,5.15c.36,1.05.8,2.15,1.29,3.24a35.85,35.85,0,0,0,3.22,5.79,37.71,37.71,0,0,0,8.45,8.82,32.58,32.58,0,0,1-1.57,5.77l-.42,1.07a1.79,1.79,0,0,0-.24-.12A36.25,36.25,0,0,1,24.33,51a9.64,9.64,0,0,1-1.19-.73A34.2,34.2,0,0,1,8.19,29.72,29.43,29.43,0,0,1,12.26,24.88ZM3.94,39.46A28.93,28.93,0,0,1,6,33.52,37.17,37.17,0,0,0,21.37,52.91a12.26,12.26,0,0,0,1.43.87,39.89,39.89,0,0,0,5.34,2.57h0a34.86,34.86,0,0,1-1.89,3.24c-.36.54-.74,1.06-1.12,1.56l-.31-.08a34.6,34.6,0,0,1-12.2-4.3,12.52,12.52,0,0,1-1.11-.68l-.1-.07A34.06,34.06,0,0,1,3.28,48.8c-.06-.67-.1-1.36-.11-2a.92.92,0,0,0,0-.16c0-.13,0-.25,0-.37A29.86,29.86,0,0,1,3.94,39.46Zm9,28.75L12.62,68A29.4,29.4,0,0,1,4.33,54.49a35.89,35.89,0,0,0,5.39,4.17,12.86,12.86,0,0,0,1.39.86,37.62,37.62,0,0,0,11.75,4.4c-.2.22-.39.44-.59.64-.86.88-1.57,1.55-2.27,2.14a34.83,34.83,0,0,1-4.73,3.44c-.63-.47-1.26-1-1.87-1.49ZM18.17,72A37.41,37.41,0,0,0,22,69.1a31.34,31.34,0,0,0,2.49-2.34c.72-.75,1.43-1.54,2.14-2.42a35.39,35.39,0,0,0,2.23-3,36.3,36.3,0,0,0,2.7-4.75c.46-1,.9-2,1.28-3a34.53,34.53,0,0,0,1.7-6.23,32.75,32.75,0,0,1,6.69-.72h.55c0,.32,0,.65,0,1s0,.93,0,1.46a34.64,34.64,0,0,1-2.58,11.77c-.24.59-.49,1.15-.77,1.69a34.16,34.16,0,0,1-8.68,11.35q-1,.85-2,1.59a29.91,29.91,0,0,1-5-1.29A28.09,28.09,0,0,1,18.17,72Zm22.4,2.86a30,30,0,0,1-7.74,1l-.61,0a37.36,37.36,0,0,0,9.05-12c.3-.59.6-1.24.87-1.92a37.63,37.63,0,0,0,2.8-12.75c0-.55.05-1.11.05-1.66,0-.28,0-.56,0-.85a33,33,0,0,1,5.09.89,1.56,1.56,0,0,0,0,.43,36.21,36.21,0,0,1,.74,7.15v.26c0,.37,0,.75-.06,1.22,0,.69-.07,1.43-.16,2.16A33.5,33.5,0,0,1,46,72.78,28.27,28.27,0,0,1,40.57,74.89ZM52.18,68.7c-.33.28-.66.54-1,.8a36.32,36.32,0,0,0,2.56-10.28c.1-.81.15-1.63.17-2.29,0-.47.06-.94.07-1.4v-.28a39.75,39.75,0,0,0-.58-6.58,34.71,34.71,0,0,1,4.44,1.93A37.78,37.78,0,0,1,61.7,53,29.68,29.68,0,0,1,52.18,68.7Z"/></g></g></svg>