<svg xmlns="http://www.w3.org/2000/svg" viewBox="0 0 92 77.5"><title>Vel1</title><g id="Calque_2" data-name="Calque 2"><g id="icons"><path d="M89.6,35.08A18.62,18.62,0,0,0,67,26.73l-9.68-21h9.06a2.29,2.29,0,1,1,0,4.58h-.76a1.53,1.53,0,1,0,0,3.05h.76a5.35,5.35,0,0,0,0-10.69H55a1.53,1.53,0,0,0-1.53,1.53,1.57,1.57,0,0,0,.14.64l3.93,8.52h-24l-2.1-4.58h1.31A3.94,3.94,0,0,0,33.12,1L24.73,0a4.41,4.41,0,1,0-.95,8.76,3.71,3.71,0,0,0,.47,0H28l2.57,5.62L24.74,26.8A18.32,18.32,0,1,0,36.55,45.45H39.9a6.09,6.09,0,1,0,9.78-6.19l10-21.11L64.23,28A18.62,18.62,0,1,0,89.6,35.08ZM24.25,5.77a1.36,1.36,0,1,1,0-2.72h.15L32.78,4a.89.89,0,0,1-.09,1.78Zm1.94,25.1A15.29,15.29,0,0,1,33.5,42.4H20.73ZM18.32,59.19a15.27,15.27,0,1,1,5.11-29.63L16.94,43.27a1.53,1.53,0,0,0,.73,2,1.44,1.44,0,0,0,.65.15H33.5A15.29,15.29,0,0,1,18.32,59.19ZM39.9,42.4H36.55a18.3,18.3,0,0,0-9-14.3l4.75-10L42,39.21A6.13,6.13,0,0,0,39.9,42.4ZM45.79,47a3.06,3.06,0,1,1,3.05-3.06A3.05,3.05,0,0,1,45.79,47Zm1.15-9a5.62,5.62,0,0,0-1.15-.12,5.47,5.47,0,0,0-1.07.11L34.88,16.45H57.11ZM73.39,59.3a15.32,15.32,0,0,1-7.87-28.5l6.35,13.77a1.53,1.53,0,0,0,2.8-1.23l0-.05L68.29,29.51a15,15,0,0,1,5-.85,15.32,15.32,0,0,1,.13,30.64Z"/><polygon points="73.26 62.24 18.32 62.24 0 62.24 0 65.29 91.58 65.29 91.58 62.24 73.26 62.24"/><path d="M21.37,74.45H3.05a1.53,1.53,0,0,0,0,3H21.37a1.53,1.53,0,0,0,0-3Z"/><path d="M56.47,74.45H35.1a1.53,1.53,0,0,0,0,3H56.47a1.53,1.53,0,1,0,0-3Z"/><path d="M88.52,74.45H70.21a1.53,1.53,0,1,0,0,3H88.52a1.53,1.53,0,1,0,0-3Z"/><path d="M18.32,53.08a9.28,9.28,0,0,1-2.62-.38,1.53,1.53,0,1,0-.89,2.92h0a12.42,12.42,0,0,0,3.49.5,1.53,1.53,0,0,0,0-3.05Z"/><path d="M11.9,50.46a9.06,9.06,0,0,1-2.74-6.54,9.26,9.26,0,0,1,.38-2.61,1.53,1.53,0,1,0-2.93-.87A12.24,12.24,0,0,0,9.77,52.65a1.56,1.56,0,0,0,1.07.43,1.52,1.52,0,0,0,1.52-1.53A1.5,1.5,0,0,0,11.9,50.46Z"/><path d="M78.5,32.89A12.3,12.3,0,0,0,75,31.84a1.53,1.53,0,0,0-.43,3,9.23,9.23,0,0,1,2.62.79,1.32,1.32,0,0,0,.65.14,1.53,1.53,0,0,0,1.52-1.53A1.56,1.56,0,0,0,78.5,32.89Z"/><path d="M83.29,36.94a1.53,1.53,0,0,0-2.51,1.75,9.15,9.15,0,0,1,1.64,5.23A9.28,9.28,0,0,1,82,46.54a1.52,1.52,0,1,0,2.92.87A12.24,12.24,0,0,0,83.29,36.94Z"/></g></g></svg>