<svg xmlns="http://www.w3.org/2000/svg" viewBox="0 0 86.85 92"><title>VS1</title><g id="Calque_2" data-name="Calque 2"><g id="icons"><path d="M85.49,50.85a165,165,0,0,0-7.28-32.31,49.92,49.92,0,0,0-.89-5.34C76.41,9,75.15,5.9,73.59,3.94c-.23-.29-.51-.56-1.87-1.17a28.36,28.36,0,0,0-3-1.17A30.28,30.28,0,0,0,59.44,0a18.89,18.89,0,0,0-7.36,1.39c-4.42,1.87-7.62,7.12-6.57,10.81a4.7,4.7,0,0,0,2.19,2.89,1.09,1.09,0,0,0,0,.18A3.93,3.93,0,0,0,50,19a5.58,5.58,0,0,0,2.25.44,8.49,8.49,0,0,0,1.36-.12,5.47,5.47,0,0,0,3.71,3.2,4.57,4.57,0,0,0,1,.11A8.74,8.74,0,0,0,61.13,22c-.69,14.91-.56,23.44-.31,28.05a31.59,31.59,0,0,0-6.54-3.45,34.87,34.87,0,0,0-12.43-2.32,44.9,44.9,0,0,0-15.38,2.8,27.6,27.6,0,0,0-5-5.41A29.72,29.72,0,0,0,1.9,35.15,1.93,1.93,0,0,0,0,37.07H0v53H0A1.92,1.92,0,0,0,1.92,92a1.93,1.93,0,0,0,1.25-.46L19.86,77.18a42.9,42.9,0,0,0,18.42,7.39,52.13,52.13,0,0,0,8.36.65A59.68,59.68,0,0,0,58.9,83.93,56.31,56.31,0,0,0,76,77.43c5-3,8.7-6.5,10.66-10.15a1.87,1.87,0,0,0,.23-1C86.84,66.06,86.65,59.89,85.49,50.85Zm-9-25.17a29.94,29.94,0,0,1-3.34.94c-2.34.5-5.63.85-8.35-.18,0-1.19.1-2.43.16-3.72a10.11,10.11,0,0,0,3.65.64h.53a15.54,15.54,0,0,0,6.18-1.46C75.71,23.15,76.1,24.42,76.47,25.68ZM58.29,18.79h-.14c-1.07-.25-1.37-1.92-1.39-2a1.87,1.87,0,0,0-.92-1.42,1.9,1.9,0,0,0-1.72-.1,6.13,6.13,0,0,1-1.9.38,2,2,0,0,1-.64-.08,2.89,2.89,0,0,1,.06-1.22,1.9,1.9,0,0,0-.31-1.68,1.93,1.93,0,0,0-1.47-.76c-.31,0-.54-.27-.66-.71-.38-1.34,1.2-4.89,4.37-6.23a15.09,15.09,0,0,1,5.87-1.09A27.64,27.64,0,0,1,70.77,6.56c2,2.8,3.13,8.51,3.53,11.52A11,11,0,0,1,69,19.52h-.37c-2.68,0-3.58-1.21-3.71-1.42a1.8,1.8,0,0,0-1.13-1,1.86,1.86,0,0,0-1.57.22A10.42,10.42,0,0,1,58.29,18.79Zm-.18,61.39a53.43,53.43,0,0,1-19.22.61,39.65,39.65,0,0,1-16-6.19l3.34-2.88a1.91,1.91,0,0,0-2.5-2.9l-5.16,4.44h0L3.83,85.91V39a25.24,25.24,0,0,1,15,5.55A21.63,21.63,0,0,1,24,50.35a1.93,1.93,0,0,0,2.39.9,41.76,41.76,0,0,1,15.32-3.09,30.8,30.8,0,0,1,11,2,25.53,25.53,0,0,1,9,5.66,2,2,0,0,0,1.44.65,1.88,1.88,0,0,0,.86-.21,1.91,1.91,0,0,0,1-2.1c0-.06-1-5.19-.4-23.72a16.22,16.22,0,0,0,4.2.52,27.93,27.93,0,0,0,8.66-1.56A188.3,188.3,0,0,1,83,65.91C79.35,72.09,69.46,77.78,58.11,80.18Z"/></g></g></svg>